<?xml version="1.0" standalone="no"?>
<!DOCTYPE svg PUBLIC "-//W3C//DTD SVG 20010904//EN"
 "http://www.w3.org/TR/2001/REC-SVG-20010904/DTD/svg10.dtd">
<svg version="1.0" xmlns="http://www.w3.org/2000/svg"
 width="700.000000pt" height="700.000000pt" viewBox="0 0 700.000000 700.000000"
 preserveAspectRatio="xMidYMid meet">
<metadata>
Created by potrace 1.11, written by Peter Selinger 2001-2013
</metadata>
<g transform="translate(0.000000,700.000000) scale(0.100000,-0.100000)"
fill="#000000" stroke="none">
<path d="M630 3498 l0 -3500 1243 7 c683 3 1314 8 1402 10 511 10 790 17 865
20 230 11 325 16 368 20 70 7 154 16 177 21 11 2 34 7 50 9 17 3 68 15 114 26
243 59 468 159 666 298 332 232 570 545 719 944 36 97 80 249 91 317 3 19 8
42 10 50 5 18 13 72 22 149 10 78 10 410 0 499 -31 297 -161 627 -340 863
-144 191 -372 388 -565 489 l-40 21 122 122 c258 261 410 544 486 911 26 123
34 211 34 361 0 302 -50 522 -178 790 -260 541 -783 925 -1376 1011 -30 4 -57
8 -60 9 -3 1 -34 5 -70 9 -36 4 -76 9 -90 11 -14 2 -72 7 -130 10 -58 4 -136
9 -175 12 -38 3 -807 7 -1707 8 l-1638 3 0 -3500z m3111 1988 c168 -6 213 -12
312 -38 132 -35 234 -114 287 -223 40 -82 57 -172 54 -291 -7 -310 -184 -479
-554 -529 -25 -4 -376 -9 -780 -12 l-735 -5 1 553 c1 305 2 554 3 555 5 3
1307 -6 1412 -10z m-116 -2620 c497 -24 631 -54 791 -177 140 -107 209 -266
213 -488 7 -378 -189 -604 -559 -646 -25 -3 -67 -8 -95 -11 -27 -3 -410 -8
-850 -11 l-800 -5 1 673 c1 371 2 674 3 674 596 0 1198 -4 1296 -9z"/>
</g>
</svg>
