<?xml version="1.0" standalone="no"?>
<!DOCTYPE svg PUBLIC "-//W3C//DTD SVG 20010904//EN"
 "http://www.w3.org/TR/2001/REC-SVG-20010904/DTD/svg10.dtd">
<svg version="1.0" xmlns="http://www.w3.org/2000/svg"
 width="446.000000pt" height="446.000000pt" viewBox="0 0 446.000000 446.000000"
 preserveAspectRatio="xMidYMid meet">
<metadata>
Created by potrace 1.14, written by Peter Selinger 2001-2017
</metadata>
<g transform="translate(0.000000,446.000000) scale(0.100000,-0.100000)"
fill="#000000" stroke="none">
<path d="M437 3568 c4 -7 8 -21 8 -30 1 -14 -1 -15 -12 -7 -7 6 -10 16 -6 22
3 6 1 7 -6 3 -6 -4 -8 -12 -5 -18 5 -7 1 -9 -9 -5 -9 3 -19 1 -23 -5 -5 -7 -2
-8 6 -3 9 5 11 4 6 -4 -5 -7 -12 -9 -19 -3 -20 14 -42 8 -39 -11 2 -10 -2 -17
-10 -16 -29 4 -36 -2 -31 -23 5 -23 5 -23 -10 -3 -16 20 -16 19 -12 -5 4 -24
4 -25 -12 -5 -14 18 -15 18 -9 1 5 -14 2 -17 -9 -12 -10 3 -14 2 -9 -5 3 -6
-3 -17 -15 -25 -12 -9 -19 -20 -16 -25 6 -8 -8 -13 -27 -10 -4 0 -5 -5 -2 -12
2 -7 -4 -22 -16 -32 -15 -14 -17 -21 -9 -32 9 -10 8 -13 -1 -13 -7 0 -10 -7
-6 -16 5 -13 3 -14 -7 -6 -10 8 -13 7 -13 -7 0 -10 5 -18 11 -17 5 2 6 1 2 -2
-4 -2 -2 -11 5 -20 8 -10 9 -13 1 -9 -6 4 -15 3 -18 -3 -5 -8 -11 -8 -20 0
-10 8 -11 3 -8 -26 2 -23 0 -33 -7 -29 -6 4 -10 3 -9 -2 1 -4 0 -10 -1 -13 -1
-3 -3 -14 -5 -25 -2 -11 -9 -21 -16 -24 -7 -2 -2 -10 12 -18 22 -13 23 -14 2
-10 -17 4 -20 1 -15 -12 5 -14 4 -15 -14 -1 -18 14 -18 14 -5 -3 11 -13 17
-15 28 -6 7 7 16 9 20 5 3 -3 2 -6 -4 -6 -17 0 -30 -43 -29 -102 1 -31 -2 -54
-6 -52 -4 2 -9 0 -13 -6 -3 -5 -1 -10 6 -10 8 0 7 -5 -2 -17 -10 -11 -10 -14
-1 -9 7 4 12 1 12 -9 0 -9 -4 -14 -8 -11 -11 7 -9 -68 3 -76 6 -5 5 -8 -3 -8
-7 0 -10 -5 -7 -10 4 -6 11 -7 17 -4 7 4 8 2 4 -5 -4 -6 -11 -9 -15 -7 -4 3
-8 -2 -8 -10 0 -9 6 -13 16 -9 11 3 10 0 -3 -10 -11 -8 -15 -15 -9 -15 11 0
11 -39 0 -57 -4 -7 0 -17 10 -23 16 -10 16 -11 -2 -5 -16 5 -18 4 -7 -6 14
-15 17 -33 3 -25 -12 8 -8 -37 4 -46 6 -5 5 -8 -3 -8 -7 0 -10 -5 -7 -10 4 -6
12 -8 18 -4 7 3 4 -1 -5 -9 -23 -18 -23 -31 0 -23 14 5 14 4 -2 -9 -11 -8 -15
-15 -9 -15 11 0 11 -39 0 -57 -4 -7 0 -17 10 -23 16 -10 16 -11 -2 -5 -16 5
-18 4 -7 -6 14 -15 17 -33 3 -25 -12 8 -8 -37 4 -46 6 -5 5 -8 -3 -8 -7 0 -10
-5 -7 -10 4 -6 12 -8 18 -4 7 3 4 -1 -5 -9 -23 -18 -23 -31 0 -23 14 5 14 4
-2 -9 -11 -8 -15 -15 -9 -15 11 0 11 -39 0 -57 -4 -7 0 -17 10 -23 16 -10 16
-11 -2 -5 -16 5 -18 4 -8 -6 15 -15 18 -33 4 -25 -12 8 -8 -37 4 -46 6 -5 5
-8 -3 -8 -7 0 -10 -5 -7 -10 4 -6 12 -8 18 -4 7 3 4 -1 -5 -9 -23 -18 -23 -31
0 -23 14 5 14 4 -2 -9 -11 -8 -15 -15 -9 -15 11 0 11 -39 0 -57 -4 -7 0 -17
10 -23 16 -10 16 -11 -2 -5 -16 5 -18 4 -8 -6 15 -15 18 -33 4 -25 -12 8 -8
-37 4 -46 6 -5 5 -8 -3 -8 -7 0 -10 -5 -7 -10 4 -6 12 -8 18 -4 7 3 4 -1 -5
-9 -23 -18 -23 -31 -1 -23 15 5 15 4 -1 -9 -11 -8 -15 -15 -10 -15 6 0 10 -11
10 -24 0 -14 -4 -22 -8 -20 -15 10 -8 -9 9 -21 13 -9 13 -14 3 -20 -9 -6 -11
-4 -5 5 5 9 4 11 -3 6 -9 -5 -7 -14 5 -32 9 -14 12 -24 7 -23 -23 4 -24 -3 -3
-22 13 -11 18 -18 12 -14 -8 4 -13 0 -13 -10 0 -10 5 -14 12 -9 11 6 11 4 0
-7 -14 -15 -16 -33 -3 -24 5 3 13 0 17 -6 4 -7 3 -9 -4 -5 -6 3 -13 2 -17 -4
-3 -5 -1 -10 4 -10 6 0 11 -5 11 -11 0 -5 -6 -7 -12 -3 -7 4 -5 -2 4 -13 20
-22 24 -38 6 -27 -7 4 -8 3 -4 -5 4 -6 11 -9 16 -6 14 9 21 -27 8 -43 -11 -13
-11 -14 1 -7 11 6 13 2 7 -19 -4 -18 -3 -25 4 -21 13 8 13 -8 -1 -22 -7 -7 -3
-10 16 -7 15 1 24 -1 20 -4 -4 -4 -11 -7 -16 -7 -5 0 -9 -4 -9 -10 0 -5 5 -10
10 -10 17 0 30 -28 19 -41 -12 -14 37 -57 54 -47 6 3 7 1 3 -5 -4 -6 -12 -10
-19 -8 -7 1 -9 1 -4 -1 4 -3 5 -9 1 -14 -3 -5 -2 -9 3 -8 21 4 32 -3 38 -21 4
-12 11 -17 18 -14 9 5 9 4 1 -5 -9 -10 -6 -18 13 -37 30 -31 43 -31 17 -1 -10
13 -7 11 8 -4 14 -15 29 -25 32 -22 3 4 6 2 6 -3 0 -6 -5 -15 -12 -22 -15 -15
-3 -15 24 -1 12 6 18 7 14 1 -3 -5 1 -12 8 -15 8 -3 17 -1 20 6 2 7 5 2 5 -11
1 -12 4 -21 9 -20 17 5 52 -14 45 -25 -4 -8 -2 -8 9 1 17 13 52 6 42 -9 -3 -5
0 -9 5 -9 6 0 11 5 11 12 0 9 3 9 12 0 19 -19 32 -14 17 6 -13 15 -12 16 3 4
9 -8 22 -11 28 -7 6 4 9 1 8 -6 -2 -8 9 -13 30 -14 26 -2 32 1 28 14 -5 13 -4
13 7 -1 11 -14 16 -15 27 -5 8 8 11 8 7 1 -4 -7 0 -14 8 -18 8 -3 14 0 12 6
-1 5 6 12 16 13 9 2 17 -1 17 -6 0 -5 3 -8 8 -8 19 3 32 -2 32 -12 0 -8 -5 -8
-15 1 -8 7 -15 9 -15 6 0 -4 -10 -2 -21 5 -17 8 -20 8 -14 -1 4 -7 3 -15 -3
-19 -6 -4 28 -7 77 -6 70 0 85 2 75 12 -7 7 -19 10 -27 7 -8 -3 -17 2 -20 10
-7 18 26 14 51 -6 13 -11 14 -11 7 1 -6 11 -4 13 10 7 15 -5 16 -4 5 9 -11 13
-10 14 5 9 14 -6 16 -4 10 7 -7 12 -6 12 8 1 19 -16 63 -12 59 6 -1 8 2 11 8
7 6 -3 8 -10 5 -15 -3 -5 -1 -11 4 -14 5 -4 8 4 7 17 -2 16 3 23 16 24 17 2
18 -1 7 -15 -6 -9 2 -3 19 15 20 20 33 28 40 21 6 -6 12 -6 17 3 6 8 4 10 -5
4 -9 -5 -11 -4 -6 3 4 7 14 12 22 12 8 0 14 6 14 14 0 8 5 18 12 22 7 5 8 3 3
-6 -5 -8 -3 -11 4 -9 7 3 12 8 12 12 -2 13 24 35 34 29 6 -3 5 1 -2 9 -9 11
-7 19 10 39 12 14 26 26 30 27 15 3 21 13 7 13 -9 0 -10 3 -1 13 6 8 7 18 3
22 -4 5 -1 5 6 1 7 -4 10 -12 7 -17 -4 -5 -1 -9 5 -9 7 0 9 8 5 21 -5 14 -3
19 3 15 6 -3 14 -1 18 5 4 7 3 9 -4 5 -6 -3 -13 -2 -17 4 -3 5 -1 10 5 10 7 0
10 7 7 14 -4 11 -1 13 10 9 11 -4 14 -2 11 8 -3 8 -12 13 -19 11 -8 -1 -4 6 9
17 15 13 18 21 10 24 -10 4 -10 6 0 6 6 1 12 6 12 12 0 5 -6 7 -12 3 -10 -6
-10 -5 -1 7 7 9 11 25 9 36 -3 12 1 20 10 20 10 0 11 -4 4 -12 -7 -9 -6 -14 4
-18 10 -4 13 -1 9 9 -3 8 1 14 8 14 11 0 11 2 0 9 -8 5 -15 19 -16 30 -1 11 3
17 8 14 6 -4 8 3 5 15 -4 12 -2 20 3 16 5 -3 9 0 9 5 0 6 -5 11 -11 11 -8 0
-7 6 2 17 8 9 9 14 2 10 -13 -8 -12 18 2 30 4 4 5 2 0 -6 -5 -9 -4 -12 3 -7 6
4 9 13 6 21 -4 8 -10 12 -15 9 -5 -3 -6 2 -3 10 3 9 10 13 15 10 5 -3 6 2 3
10 -3 9 -11 13 -18 9 -6 -3 0 6 14 21 16 18 20 26 10 24 -8 -2 -15 3 -14 10 3
42 4 44 22 37 12 -4 11 -1 -5 15 -24 21 -30 40 -14 40 5 0 11 -6 14 -12 2 -7
4 2 4 20 0 17 -4 32 -9 32 -5 0 -7 -4 -3 -9 3 -5 1 -12 -4 -15 -5 -4 -12 -2
-15 3 -4 5 -1 13 5 16 5 4 8 14 5 22 -4 10 -2 13 7 10 9 -3 13 2 12 16 -1 12
-6 22 -11 21 -15 -2 -32 28 -27 47 7 27 -14 31 -36 7 -12 -12 -21 -26 -21 -31
0 -5 -6 -4 -13 2 -8 6 -18 7 -22 3 -5 -4 -5 -2 -1 5 4 7 13 10 20 7 7 -3 16 2
20 12 5 12 3 14 -6 7 -7 -5 -20 -9 -28 -8 -8 0 -21 -8 -28 -20 -11 -18 -12
-17 -7 10 l6 30 -16 -28 c-18 -32 -33 -30 -16 2 8 14 8 22 -1 27 -6 4 -8 3 -5
-3 4 -6 -3 -19 -15 -29 -21 -19 -21 -19 -8 5 10 19 10 22 -2 15 -18 -12 -30
-12 -51 -2 -13 7 -19 3 -26 -16 -12 -30 -27 -40 -37 -25 -4 7 -3 9 3 6 6 -4
14 0 17 9 10 26 7 28 -12 11 -10 -10 -22 -14 -27 -10 -4 5 1 -5 11 -22 10 -16
14 -26 7 -22 -6 4 -14 3 -18 -3 -3 -5 0 -10 8 -10 8 0 17 -6 20 -13 3 -8 -1
-14 -9 -14 -7 0 -10 5 -7 11 3 6 2 8 -2 3 -11 -9 -14 -47 -4 -47 4 0 9 5 11
12 2 6 4 -22 4 -64 -1 -44 -5 -74 -10 -70 -6 3 -6 -3 -2 -14 13 -32 15 -55 5
-49 -5 4 -6 12 -3 18 4 7 3 8 -1 4 -23 -20 -11 -43 19 -38 5 1 4 -4 -2 -12 -9
-10 -9 -17 1 -27 9 -10 9 -11 0 -6 -12 7 -19 -24 -14 -61 1 -7 -3 -13 -9 -13
-6 0 -8 5 -4 12 4 6 3 8 -4 5 -13 -9 -10 -30 7 -51 8 -9 11 -19 7 -23 -3 -3
-6 -1 -6 5 0 7 -7 12 -15 12 -8 0 -15 -5 -15 -11 0 -5 5 -7 12 -3 7 5 9 2 5
-8 -3 -9 -1 -20 4 -25 6 -6 4 -14 -6 -23 -9 -7 -15 -8 -15 -2 0 6 5 13 10 15
6 3 5 4 -2 3 -8 -2 -12 -15 -10 -36 3 -24 0 -30 -9 -24 -9 5 -11 2 -6 -8 3
-10 -3 -24 -16 -35 -22 -18 -22 -18 -4 4 14 16 15 23 6 29 -7 4 -10 3 -6 -3 4
-6 0 -16 -9 -23 -8 -7 -13 -19 -10 -26 5 -13 -14 -24 -45 -24 -12 0 -21 -9
-25 -26 -5 -18 -9 -22 -15 -13 -4 7 -6 16 -3 20 5 9 -30 4 -47 -6 -6 -4 -8
-12 -6 -19 3 -7 -8 -11 -29 -12 -18 0 -31 3 -27 9 3 5 -4 4 -15 -2 -26 -14
-32 -14 -32 0 0 5 4 8 8 5 5 -3 9 1 9 9 0 12 -4 12 -21 -1 -28 -19 -45 -18
-20 2 14 12 15 14 3 11 -9 -3 -26 1 -37 9 -17 12 -21 12 -25 -1 -4 -9 -1 -12
7 -9 8 3 17 0 21 -6 4 -7 -2 -9 -20 -6 -29 5 -47 16 -27 16 7 0 12 4 12 10 0
5 -7 7 -15 4 -8 -4 -17 1 -21 10 -3 9 -13 16 -22 16 -8 0 -12 3 -8 7 4 4 -8
15 -26 25 -28 16 -29 18 -8 13 24 -5 24 -5 4 6 -25 13 -52 61 -30 53 8 -3 16
-1 20 4 5 8 -6 11 -49 13 -11 1 -14 3 -7 6 16 6 16 45 0 62 -10 11 -10 13 0 7
15 -9 16 10 2 19 -8 5 -7 12 2 23 10 12 10 14 1 8 -7 -4 -13 -2 -13 3 0 6 4
11 8 11 5 0 9 6 9 14 0 8 -6 12 -14 9 -9 -4 -11 0 -7 11 3 9 11 16 18 16 7 0
6 4 -3 9 -9 6 -10 14 -3 27 7 14 6 25 -4 38 -14 19 -10 60 8 83 5 7 5 14 -2
18 -7 4 -7 13 1 27 7 13 7 18 1 14 -6 -3 -13 -2 -17 4 -3 5 -1 10 6 10 7 0 4
7 -7 15 -18 13 -18 14 6 9 20 -5 22 -3 10 5 -13 9 -13 14 -2 32 8 11 9 18 3
14 -6 -3 -11 -2 -11 4 0 5 -3 18 -7 28 -6 16 -5 17 13 3 17 -14 18 -13 7 1 -7
9 -9 20 -5 24 4 5 0 5 -8 1 -8 -4 -6 0 5 10 16 13 17 16 3 11 -15 -5 -16 -1
-11 25 5 24 3 29 -7 23 -9 -5 -11 -4 -6 4 4 6 11 9 16 6 5 -3 12 0 16 6 4 8 3
9 -4 5 -7 -4 -12 -2 -12 4 0 6 -4 9 -8 6 -11 -6 -9 31 2 41 4 5 6 3 4 -2 -3
-9 4 -15 18 -15 3 0 -5 14 -17 32 -18 25 -19 30 -6 25 9 -3 19 -1 23 5 4 6 3
8 -3 5 -6 -4 -16 0 -23 8 -11 13 -10 14 3 10 8 -4 18 -1 22 5 3 6 1 9 -7 8
-14 -3 -13 49 2 67 5 6 5 17 0 25 -9 13 -10 13 -11 0 -1 -8 -1 -18 0 -22 0 -5
-4 -8 -9 -8 -17 0 -11 19 12 42 15 15 17 20 5 15 -14 -5 -15 -1 -10 25 5 24 3
29 -7 23 -9 -5 -11 -4 -6 4 4 6 11 9 16 6 5 -3 12 0 16 6 4 8 3 9 -4 5 -7 -4
-12 -2 -12 4 0 6 -4 9 -8 6 -11 -7 -8 31 3 41 4 5 5 3 1 -4 -8 -14 10 -28 18
-14 4 5 3 12 -2 15 -12 7 -14 66 -1 66 8 0 7 6 -2 17 -16 19 -16 22 3 35 10 8
9 9 -4 4 -15 -4 -16 0 -11 26 5 24 3 29 -7 23 -9 -5 -11 -4 -6 4 4 6 11 9 16
6 5 -3 12 0 16 6 4 7 3 9 -4 5 -6 -3 -13 -2 -17 4 -3 5 -1 10 6 10 7 0 4 7 -7
15 -18 13 -18 14 6 9 20 -5 22 -3 10 5 -13 9 -13 14 -2 32 8 11 9 18 3 14 -6
-3 -11 -2 -11 4 0 5 -3 18 -7 28 -6 16 -5 17 13 3 18 -14 18 -13 -1 9 -11 14
-15 21 -8 18 6 -4 15 -2 19 4 4 7 3 9 -4 5 -6 -3 -13 -2 -17 4 -3 5 -1 10 6
10 7 0 4 7 -7 15 -18 13 -18 14 6 9 20 -5 22 -3 10 5 -13 9 -13 14 -2 32 8 11
9 18 3 14 -6 -3 -11 -2 -11 4 0 5 -3 18 -7 28 -6 16 -5 17 13 3 13 -10 12 -6
-5 12 l-23 27 23 -6 24 -6 -25 22 c-18 17 -20 21 -7 17 10 -3 16 -2 12 3 -3 5
-2 11 2 14 5 2 3 3 -3 1 -12 -3 -9 51 4 70 10 14 9 37 -2 55 -7 10 -5 12 4 6
9 -6 10 -2 5 15 -6 17 -4 21 6 14 10 -6 10 -3 -1 11 -13 17 -13 18 1 13 11 -4
16 1 17 18 4 54 4 55 20 41 13 -10 14 -9 5 8 -9 15 -8 22 5 33 10 7 12 11 6 8
-6 -3 -11 1 -11 8 0 8 7 12 14 9 8 -3 13 0 11 8 -2 8 2 13 9 12 7 -2 17 6 23
17 6 11 15 20 21 20 5 0 2 -12 -7 -27 l-16 -28 21 25 c11 14 19 30 17 37 -5
12 11 12 31 0 6 -4 15 -3 18 3 5 8 12 7 23 -2 13 -11 15 -11 10 3 -5 13 -2 16
14 11 16 -4 19 -2 13 8 -5 8 -3 11 6 8 8 -3 13 -12 11 -19 -3 -10 1 -9 15 2
21 19 43 14 43 -8 0 -9 3 -14 6 -10 3 3 3 14 0 25 -7 20 -21 23 -43 9 -8 -5
-13 -4 -13 2 0 6 5 11 11 11 5 0 7 6 3 13 -6 9 -5 9 7 0 8 -6 18 -11 22 -10 5
1 15 -9 22 -23 9 -15 14 -19 15 -10 0 13 2 13 9 1 5 -8 19 -15 30 -16 16 -1
18 1 9 12 -8 11 -7 12 6 7 9 -3 16 -11 16 -16 0 -6 7 -5 16 2 8 8 14 9 12 3
-2 -6 0 -10 3 -9 10 2 39 -26 38 -38 0 -7 -2 -6 -6 2 -2 6 -9 12 -14 12 -5 0
-4 -9 3 -19 10 -16 15 -18 28 -8 8 6 12 7 8 3 -4 -5 0 -15 10 -23 9 -8 11 -12
5 -8 -20 10 -15 -2 10 -26 12 -12 17 -19 11 -16 -6 3 -11 0 -11 -7 0 -8 7 -12
16 -9 13 4 12 2 -2 -10 -16 -13 -16 -15 -2 -21 11 -4 14 -2 9 7 -5 9 -4 9 6 0
15 -14 22 -43 11 -43 -4 0 -12 5 -17 10 -7 7 -11 6 -11 -4 0 -8 4 -13 8 -11 3
3 9 -5 12 -16 3 -12 9 -19 14 -16 5 3 9 -3 9 -13 0 -10 -5 -16 -11 -13 -7 2
-12 -3 -12 -12 0 -9 5 -14 12 -11 7 2 10 -6 7 -25 -3 -19 0 -29 9 -29 10 0 10
-3 1 -12 -7 -7 -12 -21 -12 -32 0 -17 2 -18 10 -6 5 8 10 10 10 5 0 -6 -6 -17
-12 -23 -10 -10 -10 -17 -1 -32 9 -13 9 -20 1 -22 -8 -3 -8 -10 1 -25 11 -22
0 -40 -17 -29 -5 3 -9 -1 -9 -9 0 -9 5 -14 11 -13 6 2 12 -2 13 -7 1 -6 -4 -9
-12 -9 -7 1 -11 -4 -8 -12 3 -8 9 -12 13 -9 5 3 12 0 16 -6 4 -7 3 -9 -3 -6
-6 4 -17 -1 -24 -10 -10 -12 -10 -14 -1 -9 7 4 12 2 12 -4 0 -6 5 -8 12 -4 7
4 8 3 4 -5 -4 -6 -11 -9 -16 -6 -5 3 -12 0 -16 -6 -4 -8 -3 -9 4 -5 7 4 12 2
12 -3 0 -15 41 -61 54 -61 7 0 6 3 -1 8 -7 5 -9 13 -4 21 7 10 10 8 16 -8 6
-21 7 -21 20 -4 12 15 11 19 -3 25 -16 6 -16 7 0 7 9 1 20 -4 23 -9 5 -8 11
-7 21 1 12 10 15 10 12 -1 -2 -8 6 -16 17 -18 17 -4 18 -2 5 14 -12 16 -12 17
0 7 15 -14 34 -18 26 -5 -2 4 4 8 14 8 14 0 17 -6 13 -26 -4 -24 -4 -24 11 -5
8 11 12 24 9 29 -4 5 -1 6 6 2 7 -4 9 -17 6 -29 -5 -17 -4 -19 4 -7 8 11 11
12 11 2 0 -10 4 -9 16 3 13 13 19 13 33 3 14 -12 15 -11 2 4 -7 10 -18 15 -25
11 -6 -3 -2 3 8 15 19 22 32 30 22 14 -2 -4 0 -14 6 -22 8 -12 9 -12 4 2 -3
10 -1 20 5 23 5 4 7 11 3 16 -3 5 -9 7 -14 4 -5 -3 -11 -1 -14 4 -4 5 -1 13 5
17 8 5 9 3 4 -6 -5 -8 -4 -11 3 -7 5 4 8 16 5 27 -3 11 -10 17 -16 13 -6 -3
-7 -1 -3 6 4 6 9 23 12 37 3 19 1 24 -8 18 -10 -6 -10 -5 -1 7 10 12 11 46 3
57 -9 10 -3 30 14 45 12 10 15 16 7 15 -7 -2 -16 3 -19 11 -2 8 0 11 5 8 6 -4
8 4 5 19 -3 19 -7 22 -13 12 -5 -7 -9 -8 -9 -2 0 5 5 15 12 22 9 9 9 12 -1 12
-11 0 -11 3 -1 15 10 12 10 15 0 15 -10 0 -10 3 0 15 9 11 9 15 1 15 -8 0 -9
5 -2 19 6 10 7 22 3 26 -10 9 -9 29 1 36 5 3 2 9 -6 12 -15 6 -18 -28 -4 -50
4 -6 3 -15 -3 -18 -6 -4 -10 -3 -9 2 1 4 0 10 -1 13 -3 8 -10 63 -11 83 0 10
-5 15 -12 11 -9 -5 -9 -3 0 6 10 11 9 16 -4 25 -13 10 -13 14 -3 20 9 6 11 4
5 -5 -5 -9 -4 -11 4 -6 9 6 9 11 0 22 -6 7 -9 21 -5 29 3 9 2 13 -3 10 -6 -3
-14 3 -20 12 -14 24 -14 7 0 -20 10 -20 10 -21 -5 -7 -9 9 -17 34 -18 58 -1
34 -4 40 -15 31 -16 -14 -18 2 -2 18 9 9 5 11 -15 9 -15 -2 -24 -1 -21 2 2 3
-1 12 -8 21 -11 14 -10 14 6 2 15 -12 17 -12 11 3 -7 19 -30 21 -38 4 -3 -7
-3 -2 0 11 5 19 3 23 -10 18 -10 -4 -19 -1 -22 8 -4 8 -13 15 -21 15 -8 0 -11
5 -8 10 6 9 -8 15 -29 11 -5 -1 -3 5 4 14 11 13 10 14 -5 8 -14 -5 -17 -3 -12
10 4 11 2 14 -8 10 -8 -3 -13 -9 -10 -13 3 -5 0 -12 -6 -16 -7 -4 -9 -3 -5 4
3 6 1 14 -5 18 -6 3 -15 1 -19 -6 -5 -8 -9 -7 -13 5 -5 10 -3 14 5 9 7 -4 8
-3 4 5 -6 9 -11 9 -21 1 -10 -8 -15 -8 -20 0 -4 6 -14 9 -24 5 -13 -5 -14 -4
-3 6 6 7 12 16 12 20 0 3 -100 7 -222 7 -144 1 -218 -2 -208 -8 13 -9 13 -10
0 -10 -13 0 -13 -1 0 -10 10 -6 11 -10 3 -10 -25 0 -28 1 -25 15 1 7 -5 15
-13 19 -11 4 -14 2 -8 -6z m88 -8 c-3 -5 -12 -10 -18 -10 -7 0 -6 4 3 10 19
12 23 12 15 0z m-155 -46 c0 -8 -19 -13 -24 -6 -3 5 1 9 9 9 8 0 15 -2 15 -3z
m-173 -162 c-10 -10 -14 -22 -10 -27 5 -4 2 -5 -4 -1 -10 5 -10 11 0 26 6 11
16 20 21 20 5 0 2 -8 -7 -18z m-87 -227 c0 -2 -6 -8 -13 -14 -10 -8 -14 -7
-14 2 0 8 6 14 14 14 7 0 13 -1 13 -2z m273 -340 c-3 -9 -8 -14 -10 -11 -3 3
-2 9 2 15 9 16 15 13 8 -4z m644 -158 c1 -11 1 -18 0 -16 -2 2 -8 11 -15 20
-9 12 -9 16 1 16 7 0 14 -9 14 -20z m-644 -2 c-3 -9 -8 -14 -10 -11 -3 3 -2 9
2 15 9 16 15 13 8 -4z m874 -7 c-3 -8 -6 -5 -6 6 -1 11 2 17 5 13 3 -3 4 -12
1 -19z m-870 -168 c1 -11 -2 -20 -7 -20 -6 0 -7 17 -1 38 3 8 7 -1 8 -18z
m887 -553 c-3 -8 -12 -18 -20 -21 -11 -4 -11 0 2 20 18 26 28 27 18 1z m-221
-12 c-7 -21 -12 -19 -10 4 0 11 5 18 9 15 4 -3 5 -11 1 -19z m37 5 c0 -5 -5
-10 -11 -10 -5 0 -7 5 -4 10 3 6 8 10 11 10 2 0 4 -4 4 -10z m-707 -65 c-3 -9
-8 -14 -10 -11 -3 3 -2 9 2 15 9 16 15 13 8 -4z m7 -85 c0 -5 -5 -10 -11 -10
-5 0 -7 5 -4 10 3 6 8 10 11 10 2 0 4 -4 4 -10z m10 -34 c0 -11 -19 -15 -25
-6 -3 5 1 10 9 10 9 0 16 -2 16 -4z m-7 -122 c-4 -12 -8 -13 -14 -3 -9 15 -2
32 11 24 5 -3 6 -13 3 -21z m-312 -137 c-10 -9 -11 -8 -5 6 3 10 9 15 12 12 3
-3 0 -11 -7 -18z m93 -266 c-2 -3 -12 3 -22 13 -16 17 -16 18 5 5 12 -7 20
-15 17 -18z m669 4 c-3 -9 -8 -14 -10 -11 -3 3 -2 9 2 15 9 16 15 13 8 -4z
m-56 -17 c-3 -8 -6 -5 -6 6 -1 11 2 17 5 13 3 -3 4 -12 1 -19z m223 -188 c0
-5 -2 -10 -4 -10 -3 0 -8 5 -11 10 -3 6 -1 10 4 10 6 0 11 -4 11 -10z m-231
-73 c8 -10 7 -14 -4 -14 -8 0 -15 6 -15 14 0 7 2 13 4 13 2 0 9 -6 15 -13z"/>
<path d="M920 3576 c0 -2 7 -7 16 -10 8 -3 12 -2 9 4 -6 10 -25 14 -25 6z"/>
<path d="M1578 3557 c-13 -19 -13 -24 -3 -24 8 0 13 5 12 10 -1 5 5 12 13 14
9 3 11 1 5 -4 -6 -4 -10 -17 -10 -28 0 -11 -3 -32 -7 -47 -5 -22 -3 -28 10
-29 12 0 11 -3 -5 -9 -26 -11 -21 -42 5 -33 13 4 14 3 3 -5 -20 -14 -21 -112
-1 -113 9 0 5 -4 -7 -9 -26 -11 -21 -42 5 -33 13 4 14 3 3 -5 -20 -14 -21
-112 -1 -113 9 0 5 -4 -7 -9 -26 -11 -21 -42 5 -33 13 4 14 3 3 -5 -20 -14
-21 -112 -1 -113 9 0 5 -4 -7 -9 -26 -11 -21 -42 5 -33 14 4 14 3 3 -5 -17
-12 -19 -78 -2 -74 8 1 8 -3 -1 -17 -9 -15 -9 -23 1 -34 10 -13 9 -15 -11 -10
l-23 5 23 -17 c21 -15 22 -42 1 -29 -5 3 -6 10 -3 16 4 7 2 8 -4 4 -9 -5 -9
-13 -2 -27 6 -11 16 -17 21 -13 6 3 5 -3 -2 -14 -11 -17 -10 -24 2 -39 13 -16
12 -17 -3 -5 -13 11 -18 11 -24 0 -4 -7 -4 -10 1 -6 9 9 36 -23 29 -34 -3 -5
-11 -8 -17 -8 -8 0 -8 3 1 9 11 7 11 9 -1 14 -8 3 -14 0 -13 -6 3 -22 17 -37
27 -31 6 3 5 -3 -2 -14 -10 -16 -10 -23 0 -35 10 -13 9 -15 -11 -10 l-23 5 23
-17 c21 -15 22 -42 1 -29 -5 3 -6 10 -3 16 4 7 2 8 -4 4 -9 -5 -9 -13 -2 -27
6 -11 16 -17 21 -13 6 3 5 -3 -2 -14 -11 -17 -10 -24 2 -39 13 -16 12 -17 -3
-5 -13 11 -18 11 -24 0 -4 -7 -4 -10 1 -6 9 9 36 -23 29 -34 -3 -5 -11 -8 -17
-8 -8 0 -8 3 1 9 11 7 11 9 -1 14 -8 3 -14 0 -13 -6 3 -22 17 -37 27 -31 6 3
5 -3 -3 -15 -10 -16 -10 -23 0 -33 10 -10 8 -16 -10 -31 -13 -10 -17 -16 -10
-12 7 4 12 0 12 -9 0 -9 5 -16 12 -16 6 0 8 -3 5 -6 -4 -4 -15 -1 -24 7 -17
12 -17 12 -2 -5 13 -14 15 -26 9 -47 -7 -24 -6 -29 8 -30 12 0 11 -3 -5 -9
-26 -11 -21 -42 5 -33 13 4 14 3 3 -5 -20 -14 -21 -112 -1 -113 9 0 5 -4 -7
-9 -26 -11 -21 -42 5 -33 15 4 15 3 2 -6 -17 -12 -15 -67 3 -90 10 -12 9 -13
-2 -6 -11 6 -13 4 -8 -9 5 -13 3 -17 -7 -13 -20 8 -13 -23 9 -39 10 -8 13 -14
7 -14 -7 0 -12 -7 -12 -16 0 -9 5 -12 12 -8 7 4 8 3 4 -4 -4 -7 -14 -12 -22
-12 -8 0 -13 -4 -9 -10 3 -5 13 -7 23 -4 14 5 14 4 2 -4 -19 -14 -20 -72 -2
-80 11 -4 11 -6 0 -13 -11 -7 -10 -11 2 -20 13 -9 13 -10 -1 -6 -13 4 -15 0
-11 -21 3 -15 10 -31 16 -35 7 -6 4 -7 -6 -3 -10 3 -20 0 -24 -6 -4 -6 -3 -9
2 -6 5 3 16 -1 23 -10 13 -14 13 -15 -6 -10 -26 7 -25 -12 3 -43 10 -12 13
-19 7 -15 -8 4 -13 1 -13 -8 0 -8 6 -17 13 -19 6 -3 2 -6 -10 -6 -13 -1 -23
-6 -23 -11 0 -6 3 -9 8 -9 25 4 34 -4 13 -12 l-24 -9 24 -27 c13 -14 18 -23
12 -19 -8 4 -13 1 -13 -8 0 -8 6 -17 13 -19 6 -3 2 -6 -10 -6 -13 -1 -23 -6
-23 -12 0 -5 5 -7 10 -4 6 3 10 1 10 -5 0 -6 5 -8 11 -4 7 4 7 -1 -1 -15 -9
-18 -9 -26 2 -39 11 -13 11 -14 -1 -7 -11 6 -13 4 -8 -9 5 -13 3 -17 -7 -13
-20 8 -13 -23 9 -39 10 -8 13 -14 7 -14 -7 0 -12 -7 -12 -16 0 -9 5 -12 12 -8
7 4 8 3 4 -4 -4 -7 -15 -12 -24 -13 -11 -1 -8 -4 8 -9 16 -5 19 -8 8 -9 -9 -1
-20 -6 -24 -13 -4 -7 -3 -8 4 -4 7 4 12 1 12 -9 0 -9 -4 -13 -10 -10 -16 10
-11 -1 7 -16 14 -12 16 -12 8 0 -5 10 -4 12 3 7 17 -10 15 -15 -10 -26 -20 -8
-21 -9 -4 -9 20 -1 20 -1 0 -17 -10 -8 -14 -13 -8 -10 7 3 18 -8 27 -25 9 -20
17 -27 22 -20 4 8 11 9 18 3 16 -13 58 -22 52 -12 -3 5 -1 11 5 15 5 3 10 -2
11 -12 0 -10 3 -13 5 -6 4 8 14 9 35 3 16 -5 27 -5 24 0 -3 5 -1 11 5 15 5 3
10 -2 11 -12 0 -10 3 -13 5 -6 4 8 14 9 35 3 16 -5 27 -5 24 0 -3 5 -1 11 5
15 5 3 10 -2 11 -12 0 -10 3 -13 5 -6 3 7 12 9 20 6 8 -3 22 1 31 8 12 10 15
10 9 2 -4 -7 -4 -13 1 -14 4 0 18 -2 31 -3 13 -2 22 3 22 11 0 8 5 11 10 8 6
-4 8 -10 5 -15 -8 -13 21 -6 41 10 10 8 15 10 11 4 -11 -19 19 -24 42 -8 12 9
21 12 20 7 -4 -22 3 -25 17 -7 8 10 13 13 9 7 -3 -7 -2 -13 2 -13 5 0 15 6 22
13 8 6 11 7 8 2 -3 -6 4 -17 16 -25 20 -12 21 -12 8 4 -12 14 -12 16 3 10 10
-4 16 -1 16 7 0 11 2 11 10 -1 12 -20 31 -20 54 -1 11 9 16 11 13 5 -8 -13 11
-23 31 -17 6 3 9 10 5 16 -3 7 3 4 14 -6 16 -14 23 -15 29 -6 5 8 3 10 -7 4
-8 -5 -10 -4 -6 0 12 14 41 15 50 2 6 -8 7 -5 3 7 -5 14 -3 17 11 12 15 -6 16
-5 6 5 -7 7 -13 18 -13 23 0 8 3 7 8 0 4 -6 21 -15 38 -21 24 -8 31 -8 31 2 0
8 -8 12 -19 10 -10 -2 -16 0 -14 4 3 4 18 7 33 6 15 -1 33 5 39 13 9 12 13 13
19 2 6 -9 4 -11 -5 -5 -9 5 -11 4 -6 -4 11 -17 37 6 29 25 -5 13 14 20 40 15
5 -1 6 2 3 7 -3 5 6 14 20 21 18 8 24 17 20 28 -5 13 -4 14 8 4 11 -9 15 -8
20 4 4 11 2 14 -6 9 -7 -4 -8 -3 -4 5 6 9 11 9 22 0 12 -10 13 -9 8 6 -5 13
-4 16 4 11 8 -5 10 -2 6 8 -4 10 -1 16 8 16 8 0 23 10 34 22 10 12 13 18 7 14
-7 -4 -13 -2 -13 3 0 6 6 11 13 11 8 0 7 4 -3 10 -10 6 -11 10 -2 10 6 0 12 5
12 11 0 5 -6 7 -12 3 -8 -4 -10 -3 -5 2 5 5 14 9 20 9 7 0 12 8 12 17 0 9 4
20 9 25 5 4 6 3 2 -4 -3 -6 -2 -14 3 -17 10 -7 9 13 -2 31 -4 6 -3 14 3 18 6
4 7 11 4 17 -4 7 -2 8 5 4 9 -6 9 -12 -1 -24 -12 -15 -11 -16 4 -3 14 10 15
17 7 33 -8 16 -8 19 1 13 8 -5 11 -3 8 6 -3 8 -12 12 -19 11 -8 -2 -10 0 -6 5
5 4 16 8 25 8 9 0 17 5 17 12 0 6 3 14 6 17 4 4 5 20 3 37 -3 22 0 28 9 23 9
-5 9 -4 0 7 -16 16 -17 49 -2 49 6 0 9 6 6 13 -2 6 -10 11 -17 9 -11 -3 -11 0
-1 12 7 9 18 13 25 10 6 -3 2 2 -8 10 -11 9 -15 16 -9 16 6 0 14 8 18 17 5 15
4 16 -6 6 -7 -7 -18 -13 -24 -13 -7 0 -6 3 1 8 14 9 46 74 32 66 -7 -4 -9 9
-7 38 3 28 0 44 -6 42 -5 -2 -11 7 -11 21 -1 16 2 22 10 18 6 -4 3 5 -6 19
-17 26 -17 28 0 37 9 6 11 11 5 11 -14 0 -18 55 -5 63 4 2 2 2 -5 1 -7 -2 -15
1 -18 6 -4 6 1 10 9 10 9 0 16 4 16 10 0 5 -6 7 -14 4 -8 -3 -17 0 -22 7 -4 8
-3 10 4 5 7 -4 12 -4 13 1 0 4 2 19 5 33 3 18 2 21 -5 10 -5 -8 -7 -18 -4 -24
3 -5 1 -6 -6 -2 -7 4 -10 13 -8 19 2 6 -5 20 -15 31 -14 16 -15 22 -5 35 9 12
9 13 0 7 -7 -4 -13 -3 -13 3 0 5 6 12 13 14 6 3 1 6 -12 6 -18 1 -22 5 -18 21
3 11 1 20 -5 20 -5 0 -6 6 -2 13 5 7 0 6 -11 -3 -17 -14 -18 -14 -5 10 13 24
12 24 -5 10 -16 -14 -17 -13 -11 8 6 17 4 21 -8 16 -12 -5 -15 -2 -10 10 3 9
1 16 -6 16 -6 0 -8 5 -4 13 6 9 5 9 -8 -1 -12 -10 -18 -10 -28 2 -6 9 -9 20
-5 26 4 6 3 10 -2 9 -21 -4 -33 2 -33 15 0 10 -10 14 -32 14 -18 -1 -34 4 -36
10 -2 7 -13 12 -23 12 -11 0 -17 5 -14 10 4 6 10 8 15 5 4 -3 7 3 5 12 -1 10
3 24 9 32 9 12 8 12 -12 0 -12 -8 -18 -15 -12 -17 15 -5 1 -22 -18 -22 -11 0
-13 3 -6 8 6 4 10 14 9 23 -2 10 4 16 14 15 9 0 15 5 13 14 -1 9 6 6 18 -9
l20 -23 -2 23 c-2 13 2 24 9 24 6 0 14 3 18 7 4 4 13 4 20 2 7 -3 16 0 20 5 3
6 10 9 15 6 4 -3 7 3 6 12 -2 10 3 23 10 30 16 16 28 17 18 1 -4 -6 -3 -8 4
-5 5 4 9 18 8 32 -2 13 0 24 3 23 20 -2 22 4 5 17 -17 13 -17 14 -1 9 12 -4
25 1 38 15 11 11 15 21 10 21 -6 0 -15 -8 -21 -17 -6 -10 -9 -11 -6 -3 3 8 9
23 12 33 4 10 13 16 20 13 8 -3 11 0 7 9 -3 8 -9 12 -14 9 -5 -3 -6 2 -3 10 3
9 11 13 18 10 6 -3 2 2 -9 11 -19 17 -19 17 10 11 29 -7 29 -7 10 8 -11 8 -16
16 -11 16 5 0 3 6 -3 13 -8 10 -7 14 4 14 8 0 11 -5 8 -10 -3 -6 -1 -7 5 -4
11 8 11 25 -2 45 -5 8 -3 19 3 25 9 9 11 7 6 -8 -6 -20 -6 -20 6 -1 9 15 9 21
1 24 -7 2 -12 8 -12 13 0 6 5 7 10 4 6 -3 10 -2 10 4 0 5 -6 12 -12 14 -10 4
-10 6 0 6 6 1 12 6 12 12 0 5 -4 8 -8 5 -4 -2 -8 6 -8 20 0 16 5 23 12 20 8
-3 11 1 7 9 -3 8 -10 12 -15 9 -6 -4 -5 2 1 14 13 25 14 35 3 28 -5 -3 -9 1
-9 9 0 8 4 12 9 9 4 -3 8 -1 8 5 0 5 -6 12 -12 14 -10 4 -10 6 0 6 6 1 12 6
12 12 0 6 -7 8 -17 4 -15 -5 -16 -4 -5 6 6 7 12 17 12 22 0 4 -6 5 -12 1 -7
-4 -10 -4 -6 1 4 4 3 13 -2 20 -7 8 -3 19 11 33 20 23 13 32 -9 10 -15 -15
-15 -8 -2 27 7 20 7 32 -3 46 -8 10 -17 16 -22 11 -4 -4 -2 3 4 15 10 19 9 22
-4 17 -13 -5 -14 -2 -6 20 11 27 0 43 -21 30 -8 -5 -7 0 2 11 14 17 14 18 -10
5 -22 -12 -24 -12 -12 2 9 12 10 18 2 23 -6 4 -8 16 -5 28 2 12 2 17 -1 10 -6
-14 -40 11 -55 42 -8 15 -4 13 11 -5 21 -24 18 -9 -3 18 -8 10 -13 10 -25 0
-13 -10 -14 -10 -8 0 4 6 2 12 -3 12 -6 0 -11 5 -11 11 0 5 5 7 12 3 6 -4 8
-3 5 4 -4 5 -17 8 -30 5 -22 -5 -22 -5 -2 11 19 16 19 16 -6 7 -22 -8 -26 -7
-25 7 1 13 -6 16 -24 14 -24 -4 -25 -3 -5 12 19 15 19 16 -7 6 -19 -6 -29 -6
-34 2 -4 6 -3 8 3 5 5 -3 10 0 10 8 0 13 -3 13 -23 0 -21 -13 -24 -12 -48 19
l-25 34 -408 1 -408 1 -17 -23z m840 0 c6 -5 11 -16 11 -25 -1 -16 -2 -16 -6
0 -2 10 -10 15 -19 11 -8 -3 -14 1 -14 8 0 11 -3 11 -10 -1 -7 -11 -10 -11
-10 -2 0 7 -5 10 -12 6 -6 -4 -8 -3 -5 3 7 11 46 11 65 0z m137 -77 c-3 -5
-12 -10 -18 -10 -7 0 -6 4 3 10 19 12 23 12 15 0z m-512 -141 c-8 -8 -13 -7
-18 2 -6 8 -4 10 5 4 10 -6 12 -4 6 11 -6 15 -5 17 5 7 9 -10 10 -16 2 -24z
m-57 6 c-3 -8 -1 -15 4 -15 6 0 10 5 10 10 0 6 6 5 14 -2 8 -7 12 -17 9 -22
-3 -4 6 -1 19 8 14 9 28 13 31 9 4 -3 7 0 7 8 1 10 4 9 11 -4 6 -9 14 -15 20
-12 5 4 6 -2 2 -12 -3 -10 -3 -15 2 -11 4 4 15 2 23 -5 13 -10 15 -9 10 4 -5
13 -2 16 13 12 10 -3 17 -9 14 -12 -2 -4 2 -8 10 -8 8 0 12 4 9 9 -3 4 -1 8 5
8 5 0 13 -5 17 -12 5 -7 11 -5 21 7 11 16 13 17 13 3 0 -9 5 -20 12 -24 6 -4
8 -3 4 4 -3 6 -2 13 3 17 5 3 15 -3 21 -12 10 -16 11 -16 6 -1 -3 10 0 20 6
24 7 5 8 3 3 -5 -5 -9 0 -12 15 -9 14 2 25 -3 27 -12 4 -13 3 -13 -6 0 -8 12
-10 11 -8 -7 1 -14 5 -19 12 -14 16 13 42 9 42 -6 0 -10 -3 -10 -16 0 -14 11
-14 10 -2 -5 10 -14 17 -15 33 -7 11 6 22 8 26 5 3 -3 -1 -6 -8 -6 -10 0 -11
-3 -3 -11 6 -6 9 -19 6 -28 -4 -12 -1 -10 11 4 10 11 15 15 12 9 -3 -7 1 -17
9 -24 8 -7 15 -17 15 -23 0 -6 -7 -2 -15 9 -15 19 -15 19 -8 -1 4 -11 14 -27
23 -35 9 -8 10 -11 3 -6 -10 6 -12 4 -7 -8 3 -9 10 -16 14 -16 16 0 19 -30 5
-44 -13 -12 -12 -15 1 -20 8 -3 12 -2 9 4 -3 6 -2 10 4 10 5 0 9 -9 8 -19 0
-11 -6 -17 -12 -13 -5 3 -4 -2 4 -11 7 -9 9 -17 4 -17 -5 0 -9 -9 -9 -19 0
-11 4 -17 8 -15 4 3 8 1 8 -5 0 -5 -5 -13 -11 -17 -8 -4 -8 -9 0 -17 7 -7 7
-15 -2 -26 -9 -12 -9 -13 1 -7 7 4 12 1 12 -9 0 -9 -4 -14 -9 -11 -10 6 -9
-12 0 -29 5 -8 5 -49 0 -78 0 -5 -7 -5 -13 -1 -9 5 -9 2 1 -9 12 -15 11 -17
-2 -17 -9 0 -18 -4 -21 -9 -3 -4 5 -7 18 -6 21 3 22 1 12 -20 -6 -13 -13 -22
-15 -19 -11 11 -29 -20 -25 -42 3 -19 1 -24 -8 -18 -10 6 -9 3 1 -9 13 -17 7
-22 -20 -19 -4 1 -4 -9 -1 -21 5 -20 4 -21 -12 -8 -15 13 -16 12 -6 -14 9 -25
9 -26 -5 -15 -13 10 -15 9 -15 -6 0 -16 -2 -17 -10 -4 -8 13 -10 13 -10 -2 0
-21 -16 -32 -26 -17 -5 8 -3 9 7 4 8 -5 11 -5 7 -1 -13 15 -23 11 -23 -9 0
-22 -30 -28 -53 -11 -11 8 -13 5 -10 -10 2 -14 -2 -18 -16 -16 -12 2 -16 -1
-11 -10 3 -7 0 -5 -8 5 -16 20 -32 23 -21 5 5 -8 0 -7 -11 2 -10 8 -16 10 -12
4 4 -7 0 -15 -9 -18 -8 -3 -12 -2 -9 3 3 5 1 12 -4 15 -5 4 -13 2 -16 -4 -5
-8 -12 -7 -22 2 -12 10 -18 9 -29 -7 -14 -18 -14 -18 -15 1 0 12 -3 14 -6 5
-5 -11 -7 -11 -14 0 -8 11 -12 10 -24 -5 -8 -11 -15 -15 -15 -8 0 6 -9 9 -20
7 -11 -2 -20 0 -20 6 0 5 -5 9 -11 9 -5 0 -7 -5 -4 -10 4 -6 -4 -5 -19 1 -22
10 -24 15 -13 27 7 10 8 13 1 9 -7 -4 -15 0 -18 9 -3 8 -2 12 4 9 12 -7 12 -3
4 19 -3 9 -11 13 -17 9 -6 -3 -7 -1 -3 6 6 8 12 9 20 2 9 -8 13 -7 13 4 0 13
-10 19 -29 16 -8 -1 -5 20 6 38 5 8 3 16 -5 22 -8 5 -9 9 -4 9 6 0 17 -6 24
-12 10 -11 10 -8 0 14 -6 15 -16 25 -22 21 -6 -3 -7 -1 -3 6 6 8 12 9 20 2 9
-8 13 -7 13 4 0 13 -10 19 -29 16 -8 -1 -5 20 6 38 5 8 3 16 -5 22 -9 6 -10 9
-2 9 18 0 26 -19 14 -34 -9 -10 -7 -15 5 -20 9 -4 19 -4 22 -1 3 3 0 5 -7 5
-8 0 -11 7 -7 15 7 20 -14 66 -27 58 -6 -3 -7 -1 -3 6 6 9 11 9 24 -1 14 -12
14 -10 3 10 -7 12 -16 20 -21 17 -10 -6 -8 15 4 34 5 8 3 16 -5 22 -8 5 -9 9
-4 9 6 0 17 -6 24 -12 10 -11 10 -8 0 14 -6 15 -16 25 -22 21 -6 -3 -7 -1 -3
6 6 8 12 9 20 2 9 -8 13 -7 13 4 0 13 -10 19 -29 16 -8 -1 -5 20 6 38 5 8 3
16 -5 22 -9 6 -10 9 -2 9 18 0 26 -19 14 -34 -9 -10 -7 -15 5 -20 9 -4 19 -4
22 -1 3 3 0 5 -7 5 -8 0 -11 7 -7 15 7 20 -14 66 -27 58 -6 -3 -7 -1 -3 6 6 9
11 9 24 -1 14 -12 14 -10 3 10 -7 12 -16 20 -21 17 -10 -6 -8 15 4 34 5 8 3
17 -5 23 -11 7 -9 8 5 4 14 -5 17 -2 12 10 -3 9 -3 21 1 27 11 18 11 57 0 50
-5 -3 -6 4 -2 18 7 22 7 23 -11 9 -18 -14 -18 -14 -1 6 9 11 17 24 17 29 0 4
-8 1 -17 -6 -16 -13 -17 -12 -4 4 10 13 17 14 27 6 11 -9 11 -5 4 23 -9 31 -9
32 7 13 15 -20 15 -20 10 3 -3 12 -1 20 4 16 5 -3 9 0 9 5 0 6 3 11 6 11 3 0
4 -7 0 -15z m757 -80 c-3 -9 -8 -14 -10 -11 -3 3 -2 9 2 15 9 16 15 13 8 -4z
m-803 -79 c0 -2 -7 -9 -15 -16 -13 -11 -14 -10 -9 4 5 14 24 23 24 12z m831
-28 c-10 -11 -11 -9 -5 6 6 15 4 17 -6 11 -9 -6 -11 -4 -5 4 5 9 10 10 18 2 8
-8 7 -14 -2 -23z m-286 -478 c3 -5 -1 -10 -10 -10 -9 0 -13 5 -10 10 3 6 8 10
10 10 2 0 7 -4 10 -10z m165 -220 c0 -5 -5 -10 -11 -10 -5 0 -7 5 -4 10 3 6 8
10 11 10 2 0 4 -4 4 -10z m-647 -225 c8 4 18 1 23 -6 4 -7 3 -10 -2 -6 -6 3
-16 1 -24 -4 -11 -7 -8 -8 10 -6 14 2 26 9 26 15 4 35 5 37 14 22 11 -19 66
-18 62 0 -2 10 0 11 11 2 8 -7 17 -10 20 -7 4 3 4 2 1 -2 -3 -5 -11 -8 -17 -8
-5 0 -12 -7 -14 -15 -3 -9 -1 -11 4 -5 10 12 53 15 53 4 0 -5 -8 -9 -17 -9 -9
0 -14 -2 -11 -5 3 -3 24 -1 47 4 34 7 40 7 31 -4 -8 -10 -5 -13 14 -11 13 0
22 4 19 9 -2 4 1 7 6 7 6 0 11 -6 12 -12 0 -10 2 -10 5 -1 3 7 17 0 35 -20 17
-18 28 -26 24 -19 -9 18 6 15 22 -5 14 -17 14 -17 9 0 -3 11 -2 16 4 12 6 -3
10 -13 10 -21 0 -8 9 -14 21 -14 11 0 17 -4 14 -10 -3 -5 1 -10 10 -10 9 0 14
-4 11 -9 -4 -5 -2 -11 4 -13 5 -1 11 -15 12 -30 1 -15 5 -25 9 -22 4 2 17 -5
30 -15 20 -16 21 -21 10 -35 -7 -9 -9 -16 -3 -16 18 0 21 -29 5 -46 -16 -16
-16 -16 4 -10 16 5 21 3 19 -11 0 -10 5 -17 12 -15 8 1 11 -2 7 -8 -3 -5 -12
-10 -20 -10 -8 0 -17 -4 -20 -10 -3 -5 0 -7 8 -4 8 3 18 1 22 -5 3 -6 -2 -11
-12 -12 -16 0 -16 -1 2 -8 11 -5 24 -6 29 -3 5 3 5 -1 0 -9 -12 -19 -12 -52 1
-62 5 -4 -1 -6 -15 -4 -14 2 -20 2 -13 0 7 -2 10 -17 8 -34 -2 -16 1 -29 6
-29 5 0 9 -5 9 -11 0 -5 -4 -8 -8 -5 -5 3 -9 -2 -9 -10 0 -9 6 -13 16 -9 11 4
10 0 -5 -16 -10 -12 -13 -19 -5 -14 9 5 12 3 9 -6 -3 -8 -11 -13 -17 -11 -7 1
-10 -2 -6 -8 3 -6 10 -8 15 -5 5 3 12 0 16 -6 4 -8 3 -9 -4 -5 -7 4 -12 1 -12
-9 0 -9 -4 -14 -9 -10 -6 3 -6 -6 -1 -25 7 -25 6 -30 -8 -31 -11 0 -12 -2 -4
-6 6 -2 12 -9 12 -14 0 -6 -6 -7 -12 -3 -8 5 -7 0 2 -11 14 -17 13 -18 -2 -12
-10 3 -20 1 -24 -5 -4 -6 -3 -8 2 -5 6 3 16 2 24 -4 12 -7 9 -9 -10 -10 -23 0
-23 -1 -5 -9 11 -5 14 -9 7 -9 -10 -1 -10 -6 -1 -23 10 -20 10 -21 -2 -11 -12
9 -14 6 -14 -20 0 -26 -4 -31 -19 -29 -17 3 -18 1 -7 -11 9 -12 9 -17 0 -23
-8 -4 -9 -3 -5 4 4 7 3 12 -2 12 -11 0 -26 -30 -23 -44 1 -5 -8 -6 -19 -3 -18
5 -19 3 -8 -11 10 -12 10 -14 1 -8 -7 4 -13 2 -13 -3 0 -6 -4 -11 -10 -11 -5
0 -7 8 -3 18 3 9 -8 -2 -26 -25 -17 -24 -34 -43 -38 -43 -3 0 2 9 12 20 21 23
9 26 -18 5 -21 -15 -50 -9 -41 9 3 6 -3 0 -14 -13 -14 -18 -21 -21 -27 -11 -5
9 -4 11 3 6 7 -4 12 -3 12 3 0 5 -9 9 -20 8 -12 -1 -18 -7 -16 -14 3 -7 0 -15
-6 -19 -6 -4 -8 -3 -4 4 3 6 2 13 -4 17 -5 3 -10 -2 -10 -13 0 -10 -7 -19 -15
-19 -8 0 -15 4 -15 7 0 4 -11 8 -25 8 -14 0 -25 -4 -25 -9 0 -5 5 -9 10 -9 6
0 10 -5 10 -11 0 -8 -5 -7 -15 1 -9 7 -14 19 -11 26 3 7 0 16 -6 20 -7 4 -8 3
-4 -4 4 -7 2 -12 -4 -12 -6 0 -8 -5 -4 -12 5 -7 3 -8 -7 -2 -8 4 -18 9 -24 10
-5 1 -14 3 -20 4 -21 5 -36 0 -30 -10 10 -17 -7 -11 -20 7 -9 13 -14 13 -20 3
-5 -9 -4 -11 3 -6 7 4 12 3 12 -2 0 -6 -7 -13 -16 -16 -8 -3 -13 -2 -10 3 8
12 -19 33 -30 23 -4 -4 -2 1 6 11 16 22 23 67 9 67 -6 0 -7 -5 -3 -12 4 -7 3
-8 -5 -4 -6 4 -9 12 -5 17 3 5 0 18 -7 27 -10 12 -6 11 10 -3 l24 -20 -18 35
c-17 32 -17 34 -1 21 15 -12 17 -12 14 0 -2 8 -12 20 -23 27 -18 12 -17 13 10
7 20 -4 25 -3 16 4 -7 5 -11 13 -7 19 8 13 -14 62 -27 62 -6 0 -7 3 -4 6 4 4
14 1 23 -7 16 -13 16 -12 6 8 -7 12 -17 24 -24 27 -7 3 1 4 17 1 17 -2 24 -2
17 1 -6 3 -9 11 -5 17 4 6 0 8 -10 4 -9 -3 -19 -1 -23 5 -4 7 -3 8 4 4 7 -4
12 -2 12 3 0 6 -5 11 -12 11 -6 0 -8 3 -5 6 4 4 14 1 22 -6 14 -12 15 -11 4
13 -7 15 -17 27 -22 27 -6 0 -7 3 -4 6 4 4 14 1 22 -6 13 -11 16 -11 13 1 -2
8 -12 20 -23 27 -18 12 -17 13 10 7 20 -4 25 -3 16 4 -7 5 -11 13 -7 19 8 13
-14 62 -27 62 -6 0 -7 3 -4 6 4 4 14 1 23 -7 16 -13 16 -12 6 8 -7 12 -17 24
-24 27 -7 3 1 4 17 1 25 -4 27 -3 12 6 -11 6 -17 20 -15 33 1 13 -4 32 -12 42
-14 18 -14 18 5 4 19 -15 19 -15 2 13 l-18 28 28 -17 c15 -10 22 -12 16 -4
-10 11 -10 17 0 29 10 14 10 14 -3 5 -12 -9 -18 -8 -30 4 -13 14 -13 15 1 10
9 -4 20 2 28 14 7 11 8 17 2 14 -5 -4 -15 4 -22 16 -12 22 -11 22 6 8 17 -14
17 -14 7 7 -7 12 -17 24 -24 27 -7 3 1 4 17 1 17 -2 24 -2 17 1 -6 3 -9 11 -5
17 4 6 0 8 -10 4 -9 -3 -19 -1 -23 5 -4 7 -3 8 4 4 7 -4 12 -2 12 3 0 6 -5 11
-12 11 -6 0 -8 3 -5 6 4 4 14 1 22 -6 14 -12 15 -11 4 13 -7 15 -17 27 -22 27
-6 0 -7 3 -4 6 4 4 14 1 22 -6 13 -11 16 -11 13 1 -2 8 -12 20 -23 27 -18 12
-18 13 10 7 24 -4 27 -3 13 5 -21 13 -23 40 -5 59 7 8 7 11 1 8 -14 -8 -26 41
-12 49 4 3 6 10 2 15 -3 5 -2 9 3 8 28 -5 35 1 22 19 -13 16 -12 16 7 -1 12
-9 28 -15 37 -12z m312 -35 c-3 -5 -1 -10 4 -10 6 0 11 -5 11 -11 0 -8 -5 -8
-15 1 -13 11 -12 30 1 30 3 0 2 -4 -1 -10z m160 -140 c3 -5 1 -10 -4 -10 -6 0
-11 5 -11 10 0 6 2 10 4 10 3 0 8 -4 11 -10z m-868 -236 c-3 -3 -12 -4 -19 -1
-8 3 -5 6 6 6 11 1 17 -2 13 -5z m949 -104 c0 -12 -4 -16 -9 -11 -5 5 -6 14
-3 20 10 15 12 14 12 -9z m-951 -9 c3 -5 2 -12 -3 -15 -5 -3 -9 1 -9 9 0 17 3
19 12 6z m1258 -46 c-3 -9 -8 -14 -10 -11 -3 3 -2 9 2 15 9 16 15 13 8 -4z
m-927 -16 c3 -6 2 -15 -4 -21 -6 -6 -12 -6 -17 3 -5 8 -4 10 3 5 7 -4 12 -3
12 3 0 5 -6 12 -12 14 -10 4 -10 6 -1 6 6 1 15 -4 19 -10z m-331 -149 c3 -6
-1 -7 -9 -4 -18 7 -21 14 -7 14 6 0 13 -4 16 -10z m1239 -62 c-1 -13 -3 -25
-4 -28 -1 -3 -2 -9 -1 -14 1 -5 -5 -4 -13 4 -19 15 -20 21 -4 18 7 -2 13 4 14
12 2 22 4 30 7 30 2 0 3 -10 1 -22z m-908 -29 c3 -6 2 -15 -4 -21 -6 -6 -12
-6 -17 3 -5 8 -4 10 3 5 7 -4 12 -3 12 3 0 5 -6 12 -12 14 -10 4 -10 6 -1 6 6
1 15 -4 19 -10z m-331 -29 c3 -6 -1 -7 -9 -4 -18 7 -21 14 -7 14 6 0 13 -4 16
-10z m324 -143 c8 -10 7 -14 -2 -14 -8 0 -14 6 -14 14 0 7 1 13 2 13 2 0 8 -6
14 -13z m-322 -53 c-3 -3 -12 -4 -19 -1 -8 3 -5 6 6 6 11 1 17 -2 13 -5z m428
-4 c3 -5 1 -10 -4 -10 -6 0 -11 5 -11 10 0 6 2 10 4 10 3 0 8 -4 11 -10z m715
-4 c0 -3 -4 -8 -10 -11 -5 -3 -10 -1 -10 4 0 6 5 11 10 11 6 0 10 -2 10 -4z
m-680 -16 c0 -5 -2 -10 -4 -10 -3 0 -8 5 -11 10 -3 6 -1 10 4 10 6 0 11 -4 11
-10z m194 -218 c3 -5 -1 -9 -9 -9 -8 0 -12 4 -9 9 3 4 7 8 9 8 2 0 6 -4 9 -8z"/>
<path d="M2084 3316 c1 -8 5 -18 8 -22 4 -3 5 1 4 10 -1 8 -5 18 -8 22 -4 3
-5 -1 -4 -10z"/>
<path d="M2395 3230 c-3 -5 -1 -10 4 -10 6 0 11 5 11 10 0 6 -2 10 -4 10 -3 0
-8 -4 -11 -10z"/>
<path d="M1935 3110 c-10 -11 -16 -20 -12 -20 3 0 14 -3 24 -6 15 -5 16 -4 3
5 -13 10 -13 13 4 26 11 8 15 15 9 15 -5 0 -18 -9 -28 -20z"/>
<path d="M2466 3102 c-3 -5 1 -9 9 -9 8 0 12 4 9 9 -3 4 -7 8 -9 8 -2 0 -6 -4
-9 -8z"/>
<path d="M1926 2861 c-6 -10 24 -25 32 -16 3 3 0 5 -7 5 -7 0 -9 5 -6 10 3 6
2 10 -4 10 -5 0 -12 -4 -15 -9z"/>
<path d="M1926 2621 c-6 -10 24 -25 32 -16 3 3 0 5 -7 5 -7 0 -9 5 -6 10 3 6
2 10 -4 10 -5 0 -12 -4 -15 -9z"/>
<path d="M2290 2521 c0 -9 30 -24 36 -18 2 1 -6 8 -16 15 -11 7 -20 8 -20 3z"/>
<path d="M2046 2227 c3 -10 9 -15 12 -12 3 3 0 11 -7 18 -10 9 -11 8 -5 -6z"/>
<path d="M1942 2207 c-16 -19 -1 -39 16 -21 8 9 9 14 2 14 -6 0 -8 5 -5 10 9
14 -1 12 -13 -3z"/>
<path d="M1945 2120 c-3 -6 1 -7 9 -4 18 7 21 14 7 14 -6 0 -13 -4 -16 -10z"/>
<path d="M2482 2006 c7 -8 15 -12 17 -11 5 6 -10 25 -20 25 -5 0 -4 -6 3 -14z"/>
<path d="M2525 1811 c-3 -5 -2 -12 3 -15 5 -3 9 1 9 9 0 17 -3 19 -12 6z"/>
<path d="M1946 1763 c-6 -14 -5 -15 5 -6 7 7 10 15 7 18 -3 3 -9 -2 -12 -12z"/>
<path d="M1945 1200 c3 -5 8 -10 11 -10 2 0 4 5 4 10 0 6 -5 10 -11 10 -5 0
-7 -4 -4 -10z"/>
<path d="M3190 3570 c0 -6 4 -9 8 -6 5 3 9 -1 9 -8 0 -8 -6 -12 -14 -9 -9 4
-11 0 -6 -13 4 -12 3 -15 -5 -10 -18 11 -14 0 5 -15 15 -12 16 -12 8 1 -5 9
-5 12 1 7 5 -5 9 -12 9 -15 0 -4 4 -14 9 -22 7 -12 6 -13 -5 -2 -23 21 -32 13
-15 -13 9 -14 14 -25 10 -25 -4 0 0 -8 7 -17 13 -16 12 -17 -4 -4 -15 12 -20
12 -30 1 -10 -10 -9 -11 2 -5 11 6 13 4 8 -8 -4 -11 2 -25 16 -38 14 -13 16
-18 6 -14 -27 10 -31 -22 -6 -46 14 -13 16 -18 6 -14 -19 7 -34 -21 -17 -31 7
-5 8 -2 3 7 -5 8 -4 11 1 6 5 -5 9 -12 9 -15 0 -4 4 -14 9 -22 7 -12 6 -13 -5
-2 -21 19 -31 14 -17 -10 7 -13 13 -30 13 -38 0 -8 4 -22 10 -30 8 -13 7 -13
-8 -1 -9 7 -14 17 -11 22 3 5 0 9 -5 9 -13 0 -14 -10 -2 -29 6 -9 6 -22 0 -32
-6 -12 -5 -20 3 -25 6 -4 8 -3 4 4 -3 6 -1 14 6 18 7 4 10 4 6 -1 -4 -4 -3
-14 4 -22 6 -8 7 -13 2 -12 -22 4 -33 -2 -28 -16 4 -8 11 -12 18 -8 6 4 4 -2
-4 -12 -8 -10 -10 -16 -3 -12 6 4 15 2 19 -4 4 -7 3 -9 -3 -6 -6 4 -19 -1 -29
-9 -10 -9 -13 -12 -5 -8 10 5 13 3 9 -8 -4 -8 -2 -21 2 -28 5 -8 5 -21 0 -30
-5 -9 -5 -22 0 -30 5 -8 5 -21 -1 -31 -6 -12 -5 -20 3 -25 6 -4 8 -3 4 4 -3 6
-1 14 6 18 7 4 10 4 6 -1 -4 -4 -3 -14 4 -22 6 -8 7 -13 2 -12 -22 4 -33 -2
-28 -16 4 -8 11 -12 18 -8 6 4 4 -2 -4 -12 -8 -10 -10 -16 -3 -12 6 4 15 2 19
-4 4 -7 3 -9 -3 -6 -6 4 -19 -1 -29 -9 -10 -9 -13 -12 -5 -8 10 5 13 3 9 -8
-4 -8 -2 -21 2 -28 5 -8 5 -21 0 -30 -5 -9 -5 -22 0 -30 5 -8 5 -21 -1 -31 -6
-12 -5 -20 3 -25 6 -4 8 -3 4 4 -3 6 -1 14 6 18 7 4 10 4 6 -1 -4 -4 -3 -14 4
-22 6 -8 7 -13 2 -12 -22 4 -31 -2 -29 -21 1 -11 5 -23 10 -27 4 -5 5 -3 1 4
-3 6 -1 15 6 19 7 4 10 4 6 -1 -4 -4 -3 -14 4 -22 6 -8 7 -13 2 -12 -19 3 -34
-1 -34 -12 0 -5 4 -8 9 -4 5 3 13 0 17 -6 4 -8 3 -9 -4 -5 -19 11 -14 -5 6
-20 14 -12 14 -13 1 -8 -19 6 -34 -22 -17 -32 7 -5 8 -2 3 6 -6 9 -4 11 4 6 7
-5 10 -11 7 -14 -3 -3 0 -12 6 -21 10 -13 10 -14 -2 -3 -24 21 -33 13 -16 -13
9 -14 14 -25 10 -25 -4 0 0 -8 7 -17 13 -16 12 -17 -4 -4 -15 12 -20 12 -30 1
-10 -10 -9 -11 2 -5 11 6 13 4 8 -8 -4 -11 2 -25 16 -38 14 -13 16 -18 6 -14
-27 10 -31 -22 -6 -46 14 -13 16 -18 6 -14 -19 7 -34 -21 -17 -31 7 -5 8 -2 3
7 -5 8 -4 11 1 6 5 -5 9 -12 9 -15 0 -4 4 -14 9 -22 7 -12 6 -13 -5 -2 -23 21
-32 13 -15 -13 9 -14 14 -25 10 -25 -4 0 0 -8 7 -17 13 -16 12 -17 -4 -4 -15
12 -20 12 -30 1 -10 -10 -9 -11 2 -5 11 6 13 4 8 -8 -4 -11 2 -25 16 -38 14
-13 16 -18 6 -14 -27 10 -31 -22 -6 -46 14 -13 16 -18 6 -14 -19 7 -34 -21
-17 -31 7 -5 8 -2 3 7 -5 8 -4 11 1 6 5 -5 9 -12 9 -15 0 -4 4 -14 9 -22 7
-12 6 -13 -5 -2 -23 21 -32 13 -15 -13 9 -14 14 -25 10 -25 -4 0 0 -8 7 -17
13 -16 12 -17 -4 -4 -15 12 -20 12 -30 1 -10 -10 -9 -11 2 -5 11 6 13 4 8 -8
-4 -11 2 -25 16 -38 14 -13 16 -18 6 -14 -27 10 -31 -22 -6 -46 14 -13 16 -18
6 -14 -19 7 -34 -21 -17 -31 7 -5 8 -2 3 7 -5 8 -6 12 -2 9 3 -3 6 -9 7 -15 1
-5 7 -17 13 -25 9 -12 9 -13 -3 -2 -24 21 -33 13 -16 -13 9 -14 14 -25 10 -25
-4 0 0 -8 7 -17 13 -16 12 -17 -4 -4 -15 12 -20 12 -30 1 -10 -10 -9 -11 2 -5
11 6 13 4 8 -8 -4 -11 2 -25 16 -38 14 -13 16 -18 6 -14 -27 10 -31 -22 -6
-46 14 -13 16 -18 6 -14 -19 7 -34 -21 -17 -31 7 -5 8 -2 3 7 -5 8 -6 12 -2 9
3 -3 6 -9 7 -15 1 -5 7 -17 13 -25 9 -12 9 -13 -3 -2 -24 21 -33 13 -16 -13 9
-14 14 -25 10 -25 -4 0 0 -8 7 -17 13 -16 12 -17 -4 -4 -15 12 -20 12 -30 1
-10 -10 -9 -11 2 -5 11 6 13 4 8 -8 -4 -11 2 -25 16 -38 14 -13 16 -18 6 -14
-27 10 -31 -22 -6 -46 14 -13 16 -18 6 -14 -19 7 -34 -21 -17 -31 7 -5 8 -2 3
7 -8 12 -6 12 8 0 18 -14 22 -22 10 -20 -22 4 -32 -3 -27 -16 4 -8 11 -12 18
-8 6 4 4 -2 -4 -12 -8 -10 -10 -16 -3 -12 6 4 15 2 19 -4 4 -7 3 -9 -3 -6 -6
4 -19 -1 -29 -9 -10 -9 -13 -12 -5 -8 10 5 13 3 9 -8 -4 -8 -2 -21 2 -28 5 -8
5 -21 0 -30 -5 -9 -5 -22 0 -30 5 -8 5 -21 0 -30 -5 -9 -5 -22 0 -30 6 -10 4
-20 -6 -31 -14 -16 -14 -19 6 -39 16 -16 25 -19 35 -10 8 6 16 7 19 2 3 -5 17
-12 31 -14 13 -3 22 -2 20 3 -3 4 -1 10 5 14 5 3 10 -2 11 -12 0 -10 3 -13 5
-6 4 8 14 9 35 3 16 -5 27 -5 24 0 -3 5 -1 11 5 15 5 3 10 -2 11 -12 0 -10 3
-13 5 -6 4 8 14 9 35 3 16 -5 27 -5 24 0 -3 5 -1 11 5 15 5 3 10 -2 11 -12 0
-10 3 -13 5 -7 4 9 37 11 69 4 23 -5 36 1 29 12 -5 8 -1 7 10 -2 23 -18 44
-21 53 -8 4 7 1 8 -7 3 -9 -5 -11 -4 -6 4 5 8 13 7 28 -3 22 -16 52 -11 41 8
-3 6 4 2 17 -9 l23 -20 -7 20 c-6 16 -5 18 5 7 16 -15 33 -16 23 0 -4 7 8 1
26 -12 18 -13 30 -19 26 -12 -4 7 -2 12 4 12 6 0 8 6 4 13 -4 6 1 5 12 -4 23
-18 42 -19 53 -1 7 11 9 10 15 -3 3 -9 11 -13 17 -10 6 4 8 13 5 21 -3 7 0 16
6 20 7 5 8 2 3 -6 -6 -9 -2 -10 15 -5 17 6 21 4 14 -6 -6 -12 -5 -12 9 0 16
12 22 8 18 -12 -1 -5 3 -6 9 -2 6 3 8 11 5 16 -4 5 1 9 9 9 9 0 16 5 16 10 0
7 -8 7 -22 -1 -18 -9 -20 -9 -12 0 15 16 46 21 61 9 7 -6 14 -5 19 3 5 8 3 9
-6 4 -9 -6 -11 -4 -5 4 5 9 11 9 18 2 7 -7 15 -4 26 8 9 9 12 12 8 5 -5 -7 -3
-15 4 -20 8 -5 9 -3 4 6 -6 10 -4 12 8 7 11 -4 14 -2 10 9 -9 24 16 44 51 39
17 -2 25 -2 19 1 -18 8 -16 24 3 24 8 0 13 4 10 9 -3 5 1 11 9 14 9 4 13 1 9
-11 -2 -9 3 -2 11 16 9 18 20 30 25 27 5 -3 7 0 4 8 -2 7 5 25 16 38 l21 24
-17 -28 c-15 -25 -15 -27 0 -21 9 4 14 9 11 12 -3 3 3 14 12 25 10 11 13 17 7
14 -7 -4 -14 0 -17 8 -4 10 -1 12 10 8 11 -4 14 -3 9 6 -4 6 -4 10 1 9 4 -2 9
2 11 7 2 6 10 14 18 18 8 5 11 13 7 20 -12 20 -10 45 3 40 6 -2 15 1 20 8 4 8
3 10 -4 5 -7 -4 -12 -1 -12 9 0 11 5 15 16 11 10 -4 13 -2 8 6 -5 8 -1 9 12 5
18 -7 18 -6 2 7 -22 16 -24 30 -4 23 10 -4 13 -1 9 8 -3 8 -10 12 -17 8 -7 -4
-6 -1 1 9 7 8 14 28 15 44 2 33 18 62 33 60 14 -1 14 157 1 166 -8 5 -7 8 1 8
8 0 11 42 11 155 0 85 -4 152 -9 150 -4 -3 -11 -1 -14 5 -4 6 -1 9 7 8 10 -2
13 16 14 74 1 43 -2 76 -6 73 -5 -3 -12 -1 -15 5 -4 6 -1 9 7 8 10 -2 13 16
14 74 1 43 -2 76 -6 73 -5 -3 -12 -1 -15 5 -4 6 -1 9 7 8 10 -2 13 16 14 74 1
43 -2 76 -6 73 -5 -3 -12 -1 -15 5 -4 6 -1 9 7 8 10 -2 13 42 13 230 l1 233
-26 -6 -25 -5 25 14 c27 15 38 68 12 59 -9 -4 -10 -9 -3 -16 6 -6 11 -16 11
-21 0 -6 -5 -3 -11 7 -6 9 -14 15 -19 12 -4 -3 -7 3 -5 12 1 10 9 17 16 15 8
-2 4 6 -8 18 -28 26 -30 34 -3 18 14 -9 22 -10 31 -1 8 8 7 11 -6 10 -9 -1
-24 9 -33 23 -16 23 -16 24 1 17 15 -5 16 -3 8 12 -6 10 -7 21 -3 25 3 4 -2 4
-13 1 -19 -6 -19 -6 -2 8 16 13 16 15 2 21 -11 4 -14 2 -9 -6 4 -7 3 -8 -5 -4
-6 4 -9 11 -7 15 3 4 1 13 -4 21 -5 8 -5 19 1 26 6 8 3 16 -8 25 -16 13 -17
12 -4 -3 7 -10 9 -18 3 -18 -12 0 -23 26 -14 34 13 13 9 33 -5 32 -9 0 -18 5
-21 13 -3 9 0 11 8 6 8 -5 11 -4 6 3 -4 6 -14 8 -23 5 -13 -5 -15 -1 -11 19 3
16 0 25 -8 25 -7 0 -10 -5 -7 -10 3 -6 1 -7 -6 -3 -9 6 -9 11 1 24 11 13 10
15 -5 9 -15 -6 -17 -3 -12 16 7 22 7 22 -9 2 -15 -20 -15 -20 -11 1 2 15 -2
21 -13 20 -10 0 -17 6 -17 16 0 10 -5 18 -10 19 -6 1 -19 8 -30 15 -11 8 -24
14 -30 14 -5 0 -3 -5 5 -10 12 -7 10 -9 -7 -8 -17 2 -20 6 -12 25 8 20 6 21
-16 13 -16 -6 -27 -6 -31 2 -4 6 -3 8 3 5 5 -3 10 0 10 7 0 14 -32 15 -44 1
-5 -4 -2 -5 6 0 9 5 12 4 7 -3 -5 -9 -13 -8 -29 2 -12 8 -30 12 -39 11 -10 -2
-18 2 -18 7 0 6 -9 3 -21 -8 -15 -14 -20 -15 -17 -4 2 9 -4 14 -14 14 -24 -2
-23 3 3 17 12 6 19 7 16 2 -3 -5 4 -9 16 -10 12 -1 33 -4 45 -7 19 -4 21 -2
13 8 -6 7 -9 15 -6 18 3 3 -184 6 -415 7 -305 2 -420 -1 -420 -9z m825 -10 c3
-6 -1 -7 -9 -4 -18 7 -21 14 -7 14 6 0 13 -4 16 -10z m200 -102 c5 4 5 1 1 -6
-6 -10 -11 -10 -22 -1 -8 6 -14 14 -14 16 0 3 6 0 13 -6 8 -6 18 -7 22 -3z
m-581 -114 c3 -8 2 -13 -2 -10 -4 2 -16 -2 -27 -10 -10 -8 -14 -14 -8 -14 7 0
15 5 19 11 4 8 9 7 15 -2 5 -8 9 -9 9 -4 0 6 16 10 36 11 20 0 40 7 45 15 7
12 9 12 9 -1 0 -13 1 -13 11 0 8 12 9 11 5 -5 -6 -21 -1 -23 57 -25 9 -1 15
-5 13 -9 -3 -4 1 -8 8 -8 8 0 12 7 9 16 -3 11 0 10 11 -3 12 -15 16 -16 16 -5
0 12 2 12 10 -1 6 -10 10 -11 10 -2 0 6 5 12 11 12 6 0 8 -7 5 -16 -3 -8 -2
-12 3 -9 5 3 12 1 16 -5 3 -5 13 -10 22 -10 9 0 22 -8 29 -17 13 -17 14 -17 8
0 -3 9 -1 17 5 17 6 0 10 -3 10 -7 -4 -26 3 -35 22 -30 16 4 18 3 9 -8 -8 -10
-6 -15 9 -20 12 -3 26 -16 32 -27 8 -15 8 -19 0 -14 -6 4 -11 2 -11 -3 0 -6 5
-11 12 -11 6 0 9 -3 5 -6 -3 -4 1 -21 10 -38 15 -29 15 -30 -1 -17 -14 12 -16
12 -10 -3 6 -15 18 -20 39 -16 6 1 4 -4 -2 -11 -15 -15 -18 -73 -4 -64 9 5 9
-4 -1 -45 -1 -8 3 -14 10 -12 8 1 11 -2 7 -8 -3 -6 -10 -8 -15 -5 -5 3 -12 1
-15 -5 -4 -6 -1 -9 7 -8 9 2 12 -6 11 -25 -1 -19 2 -26 10 -22 7 4 3 -1 -7 -9
-19 -15 -19 -16 0 -38 10 -12 13 -18 6 -14 -14 8 -12 -19 2 -43 6 -10 5 -12
-2 -7 -16 10 -15 -7 1 -23 10 -11 10 -13 0 -7 -16 9 -16 1 -3 -24 7 -13 7 -21
-2 -26 -7 -4 -8 -3 -4 4 4 7 2 12 -3 12 -16 0 -13 -11 7 -33 9 -11 11 -17 4
-13 -14 8 -12 -19 2 -43 6 -10 5 -12 -2 -7 -16 10 -15 -7 1 -23 6 -8 7 -11 1
-8 -13 7 -12 -61 0 -82 7 -10 3 -11 -15 -6 l-24 8 25 -22 c14 -13 19 -20 12
-16 -8 4 -11 -1 -8 -17 2 -13 0 -30 -5 -40 -6 -11 -4 -18 7 -22 8 -3 12 -11 8
-18 -11 -18 -11 -91 1 -107 8 -11 5 -12 -15 -6 l-25 8 25 -22 c14 -13 19 -20
12 -16 -8 4 -11 -1 -8 -17 2 -13 0 -30 -5 -40 -6 -11 -4 -18 7 -22 8 -3 12
-11 8 -18 -11 -18 -11 -91 1 -107 8 -11 5 -12 -15 -6 l-25 8 25 -22 c14 -13
19 -20 12 -16 -8 4 -11 -1 -8 -17 2 -13 0 -30 -5 -40 -6 -11 -4 -18 7 -22 8
-3 12 -11 8 -18 -11 -18 -11 -91 1 -107 8 -11 5 -12 -15 -6 l-25 8 25 -22 c14
-13 19 -20 12 -16 -13 7 -12 -21 2 -44 6 -9 5 -12 -2 -7 -17 10 -20 -18 -3
-32 14 -10 13 -11 -4 -5 -11 3 -17 3 -13 -2 4 -4 2 -17 -4 -29 -10 -19 -10
-20 5 -7 19 15 23 1 5 -17 -9 -9 -9 -12 0 -12 7 0 12 -5 12 -11 0 -5 -4 -7
-10 -4 -14 9 -12 -28 3 -44 10 -11 10 -13 0 -7 -7 4 -13 2 -13 -3 0 -6 6 -11
13 -12 9 0 9 -2 0 -5 -7 -3 -11 -11 -9 -17 1 -7 1 -9 -1 -4 -3 4 -12 7 -21 7
-11 0 -13 -3 -6 -8 6 -4 13 -14 16 -23 5 -13 2 -16 -15 -12 -22 5 -22 5 -2
-11 11 -10 15 -15 8 -12 -6 4 -14 2 -18 -4 -3 -5 -1 -10 4 -10 6 0 11 -5 11
-11 0 -5 -4 -7 -10 -4 -5 3 -10 -3 -10 -15 0 -12 -4 -18 -10 -15 -5 3 -10 0
-10 -9 0 -8 6 -17 13 -20 6 -3 -1 -3 -16 -1 -23 3 -26 1 -17 -10 8 -10 4 -18
-19 -34 -16 -12 -33 -21 -38 -21 -4 0 -1 5 7 11 13 9 13 10 0 6 -8 -2 -14 -12
-13 -22 1 -13 -5 -16 -23 -12 -24 4 -24 4 -7 -17 10 -11 11 -15 3 -8 -18 15
-34 16 -24 0 4 -7 3 -8 -5 -4 -6 4 -20 2 -29 -6 -15 -12 -16 -11 -3 5 8 9 11
20 7 24 -3 3 -6 1 -6 -5 0 -16 -30 -15 -31 1 0 9 -2 9 -6 -1 -2 -7 -14 -17
-25 -23 -18 -9 -20 -9 -15 4 4 11 2 14 -8 11 -8 -3 -11 -12 -8 -20 4 -12 0
-13 -21 -5 -31 12 -44 -2 -24 -26 12 -15 11 -15 -9 -2 -15 9 -21 20 -18 34 3
11 2 14 -1 7 -3 -6 -11 -9 -17 -5 -6 4 -8 0 -4 -9 9 -25 -63 -19 -86 7 -10 11
-16 15 -13 9 4 -7 -5 -11 -22 -11 -15 0 -21 2 -14 4 18 7 14 33 -5 33 -15 0
-16 2 -3 9 8 6 18 7 22 5 4 -3 5 2 2 10 -3 9 -10 16 -16 16 -5 0 -6 -5 -2 -12
4 -7 3 -8 -5 -4 -18 11 6 36 27 29 14 -6 15 -5 2 9 -11 11 -17 12 -22 4 -6 -8
-8 -7 -8 2 0 7 -5 10 -12 6 -7 -4 -8 -3 -4 5 4 6 12 8 18 5 7 -5 9 -1 5 9 -3
10 -2 17 3 17 6 0 10 -5 10 -12 0 -6 3 -8 7 -4 4 4 -6 18 -22 32 -17 13 -25
23 -20 22 6 -2 12 2 13 7 7 20 25 35 35 28 6 -3 7 -1 3 5 -5 9 -13 9 -26 2
-13 -7 -21 -7 -26 2 -4 6 -3 8 3 5 6 -4 16 0 22 7 9 11 9 16 0 22 -8 5 -9 3
-4 -6 5 -9 4 -11 -4 -6 -6 4 -9 12 -5 17 3 5 9 7 13 5 4 -3 13 5 20 17 11 18
11 20 0 10 -18 -18 -34 -16 -19 2 15 18 0 20 -20 3 -12 -11 -12 -10 0 5 8 11
21 16 32 14 10 -3 16 -1 12 4 -3 5 -12 9 -20 9 -8 0 -14 5 -14 11 0 5 4 8 9 5
5 -4 8 2 6 11 -1 10 5 27 13 38 10 12 11 15 2 8 -18 -17 -38 -17 -22 -1 17 17
15 33 -3 18 -9 -7 -18 -10 -22 -6 -3 3 -1 6 6 6 7 0 9 5 5 12 -5 7 -3 8 6 3
10 -6 12 -4 7 8 -3 10 -2 17 2 17 5 0 12 -6 14 -12 4 -10 6 -10 6 -1 1 7 -8
17 -20 23 -16 9 -18 14 -8 26 6 8 8 14 4 14 -4 0 -2 6 4 14 7 9 8 17 2 20 -5
3 -11 0 -14 -6 -2 -7 -7 -10 -11 -7 -4 3 0 11 8 18 11 9 17 8 30 -4 9 -9 16
-12 16 -7 0 6 -15 20 -32 32 -18 12 -25 19 -15 16 9 -3 17 -1 17 5 0 6 5 7 12
3 7 -4 8 -3 4 5 -4 6 -11 9 -15 7 -4 -3 -8 2 -8 10 0 8 5 13 12 11 6 -3 11 4
11 14 0 14 -3 15 -14 7 -9 -8 -16 -8 -25 1 -9 10 -8 11 6 5 12 -4 17 -2 15 7
-2 9 4 13 17 11 16 -2 17 -1 5 7 -8 5 -17 8 -21 5 -4 -2 -11 1 -15 7 -4 7 -3
9 3 6 6 -4 14 0 17 9 3 8 2 13 -3 10 -5 -3 -15 2 -22 12 -13 15 -12 16 3 4 15
-12 17 -10 16 16 -1 16 3 35 7 42 5 8 4 11 -2 7 -6 -4 -17 1 -24 11 -13 15
-12 16 3 4 15 -12 17 -10 16 16 -1 16 3 35 7 42 5 8 4 11 -2 7 -6 -4 -17 1
-24 11 -13 15 -12 16 3 4 15 -12 17 -10 16 16 -1 16 3 35 7 42 5 8 4 11 -2 7
-6 -4 -17 1 -24 11 -13 16 -13 16 5 2 18 -14 19 -13 14 6 -3 12 -1 28 3 37 7
11 4 17 -12 22 -19 6 -20 7 -2 21 10 7 14 14 9 14 -5 0 -3 7 4 15 7 9 10 18 7
22 -4 3 -2 12 4 19 9 11 7 15 -6 20 -9 4 -13 10 -8 13 4 3 14 17 22 31 10 20
11 22 0 13 -17 -17 -37 -17 -21 -1 16 16 15 33 -1 19 -10 -8 -14 -7 -14 4 0 8
5 11 10 8 6 -4 8 0 4 10 -3 10 -2 17 2 17 5 0 12 -6 14 -12 4 -10 6 -10 6 -1
1 7 -8 17 -20 23 -16 9 -18 14 -8 26 6 8 8 14 3 14 -4 0 -3 5 4 12 16 16 15
33 -1 19 -10 -8 -14 -7 -14 4 0 8 4 12 8 10 3 -3 12 2 19 10 10 12 9 16 -5 21
-9 4 -13 10 -8 13 4 3 14 17 22 31 10 20 11 22 0 13 -17 -17 -37 -17 -21 -1
16 16 15 33 -1 19 -10 -8 -14 -7 -14 4 0 8 5 11 10 8 6 -4 8 0 4 10 -3 10 -2
17 2 17 5 0 12 -6 14 -12 4 -10 6 -10 6 -1 1 7 -8 17 -20 23 -16 9 -18 14 -8
26 6 8 8 14 4 14 -4 0 -2 7 5 15 7 8 17 12 23 8 6 -3 7 -1 3 5 -5 9 -13 9 -29
1 -22 -12 -22 -11 -4 9 14 15 15 22 6 28 -8 4 -10 3 -5 -4 5 -8 1 -10 -10 -5
-16 6 -6 17 12 13 7 -2 33 32 34 44 0 6 -6 1 -14 -10 -13 -16 -17 -17 -28 -5
-7 8 -8 11 -2 8 7 -4 15 0 18 9 3 8 2 13 -3 10 -5 -3 -15 2 -22 12 -13 15 -12
16 3 4 15 -12 17 -10 16 16 -1 16 3 35 7 42 5 8 4 11 -2 7 -6 -4 -17 1 -24 11
-13 15 -12 16 3 4 15 -12 17 -10 16 16 -1 16 3 35 7 42 5 8 4 11 -2 7 -6 -4
-17 1 -24 11 -13 15 -12 16 3 4 15 -12 17 -10 16 16 -1 16 3 35 7 42 5 8 4 11
-2 7 -6 -4 -17 1 -24 11 -13 15 -12 16 3 4 18 -14 18 -17 19 97 0 32 3 41 10
30 7 -11 8 -9 6 8 -2 12 -7 26 -12 30 -4 5 -5 2 -1 -4 4 -7 2 -13 -3 -13 -12
0 -9 35 4 47 4 5 5 3 1 -4 -4 -8 1 -11 13 -10 15 1 17 5 10 13 -8 9 -5 11 10
7 13 -3 21 -1 21 6 0 7 5 9 10 6 6 -3 10 -1 10 4 0 16 7 13 14 -5z m49 3 c4 3
7 1 7 -5 0 -6 -8 -10 -18 -9 -10 0 -19 7 -19 14 0 9 4 10 12 3 7 -5 15 -7 18
-3z m254 -51 c0 -8 -6 -12 -15 -9 -11 5 -11 7 0 14 7 5 13 9 14 9 0 0 1 -6 1
-14z m-730 -293 c-4 -3 -1 -13 6 -22 11 -14 10 -14 -5 -2 -16 12 -16 31 -1 31
4 0 3 -3 0 -7z m0 -60 c-4 -3 -1 -13 6 -22 11 -14 10 -14 -5 -2 -16 12 -16 31
-1 31 4 0 3 -3 0 -7z m1238 -23 c3 -6 -1 -7 -9 -4 -18 7 -21 14 -7 14 6 0 13
-4 16 -10z m-1238 -157 c-4 -3 -1 -13 6 -22 11 -14 10 -14 -5 -2 -16 12 -16
31 -1 31 4 0 3 -3 0 -7z m0 -60 c-4 -3 -1 -13 6 -22 11 -14 10 -14 -5 -2 -16
12 -16 31 -1 31 4 0 3 -3 0 -7z m328 -91 c-3 -3 -11 0 -18 7 -9 10 -8 11 6 5
10 -3 15 -9 12 -12z m915 -92 c0 -5 -2 -10 -4 -10 -3 0 -8 5 -11 10 -3 6 -1
10 4 10 6 0 11 -4 11 -10z m-915 -148 c-3 -3 -11 0 -18 7 -9 10 -8 11 6 5 10
-3 15 -9 12 -12z m915 -12 c0 -5 -2 -10 -4 -10 -3 0 -8 5 -11 10 -3 6 -1 10 4
10 6 0 11 -4 11 -10z m-915 -61 c-4 -5 -12 -9 -18 -8 -9 0 -8 2 1 6 6 2 9 10
6 15 -4 7 -2 8 5 4 6 -4 9 -12 6 -17z m915 -99 c0 -5 -2 -10 -4 -10 -3 0 -8 5
-11 10 -3 6 -1 10 4 10 6 0 11 -4 11 -10z m0 -160 c0 -5 -2 -10 -4 -10 -3 0
-8 5 -11 10 -3 6 -1 10 4 10 6 0 11 -4 11 -10z m-4 -215 c-1 -8 -5 -17 -8 -21
-5 -4 -4 16 1 34 3 9 9 -1 7 -13z m-5 -58 c-10 -9 -11 -8 -5 6 3 10 9 15 12
12 3 -3 0 -11 -7 -18z m3 -106 c3 -5 -1 -11 -9 -14 -9 -4 -12 -1 -8 9 6 16 10
17 17 5z m6 -39 c0 -5 -7 -9 -15 -9 -8 0 -12 4 -9 9 3 4 9 8 15 8 5 0 9 -4 9
-8z m-7 -29 c-7 -2 -13 -9 -13 -14 0 -6 3 -8 8 -5 4 2 8 -9 8 -25 1 -17 -1
-28 -4 -25 -3 3 -11 1 -18 -5 -8 -7 -14 -6 -20 2 -4 8 -3 9 4 5 7 -4 12 -4 13
1 0 4 2 16 4 25 2 10 -1 21 -7 24 -11 7 9 24 27 23 6 0 4 -3 -2 -6z m-698
-421 c-3 -3 -11 0 -18 7 -9 10 -8 11 6 5 10 -3 15 -9 12 -12z m-538 -9 c-4 -3
-1 -13 6 -22 11 -14 10 -14 -5 -2 -16 12 -16 31 -1 31 4 0 3 -3 0 -7z m0 -60
c-4 -3 -1 -13 6 -22 11 -14 10 -14 -5 -2 -16 12 -16 31 -1 31 4 0 3 -3 0 -7z
m0 -60 c-4 -3 -1 -13 6 -22 11 -14 10 -14 -5 -2 -16 12 -16 31 -1 31 4 0 3 -3
0 -7z m-9 -66 c-1 -2 3 -11 11 -20 17 -22 8 -22 -13 -1 -9 8 -13 20 -10 25 3
6 8 8 11 5 2 -2 3 -6 1 -9z m777 3 c-3 -5 -12 -10 -18 -10 -7 0 -6 4 3 10 19
12 23 12 15 0z"/>
<path d="M4027 3184 c6 -15 23 -19 23 -5 0 5 -7 11 -14 14 -10 4 -13 1 -9 -9z"/>
<path d="M4079 2963 c-13 -16 -12 -17 4 -4 16 13 21 21 13 21 -2 0 -10 -8 -17
-17z"/>
<path d="M3542 2755 c4 -4 3 -14 -3 -22 -7 -8 -8 -13 -1 -13 15 0 23 28 9 36
-7 4 -9 4 -5 -1z"/>
<path d="M3542 2515 c4 -4 3 -14 -3 -22 -7 -8 -8 -13 -1 -13 15 0 23 28 9 36
-7 4 -9 4 -5 -1z"/>
<path d="M3542 2275 c4 -4 3 -14 -3 -22 -7 -8 -8 -13 -1 -13 15 0 23 28 9 36
-7 4 -9 4 -5 -1z"/>
<path d="M3542 1715 c4 -4 3 -14 -3 -22 -7 -8 -8 -13 -1 -13 15 0 23 28 9 36
-7 4 -9 4 -5 -1z"/>
<path d="M4071 1506 c-9 -10 -8 -15 2 -19 8 -3 13 3 13 14 0 23 0 23 -15 5z"/>
<path d="M3542 1395 c4 -4 3 -14 -3 -22 -7 -8 -8 -13 -1 -13 15 0 23 28 9 36
-7 4 -9 4 -5 -1z"/>
<path d="M3985 1290 c-3 -6 1 -7 9 -4 18 7 21 14 7 14 -6 0 -13 -4 -16 -10z"/>
<path d="M3613 1197 c-3 -4 -2 -11 1 -14 3 -4 6 -1 6 7 0 9 3 10 14 1 10 -9
15 -8 19 2 5 14 -31 18 -40 4z"/>
<path d="M2450 3541 c0 -6 4 -12 8 -15 5 -3 9 1 9 9 0 8 -4 15 -9 15 -4 0 -8
-4 -8 -9z"/>
<path d="M1091 3473 c7 -10 15 -20 16 -22 2 -2 3 3 3 11 0 9 -7 19 -16 22 -15
6 -15 4 -3 -11z"/>
<path d="M107 3225 c3 -8 9 -12 14 -9 12 7 11 11 -5 17 -10 4 -13 1 -9 -8z"/>
<path d="M4387 3209 c7 -7 15 -10 18 -7 3 3 -2 9 -12 12 -14 6 -15 5 -6 -5z"/>
<path d="M2786 3078 c3 -4 9 -8 15 -8 5 0 9 4 9 8 0 5 -7 9 -15 9 -8 0 -12 -4
-9 -9z"/>
<path d="M958 3043 c7 -3 16 -2 19 1 4 3 -2 6 -13 5 -11 0 -14 -3 -6 -6z"/>
<path d="M973 2952 c0 -12 5 -22 9 -22 11 0 10 12 -2 30 -7 12 -9 10 -7 -8z"/>
<path d="M970 2901 c0 -6 4 -13 10 -16 6 -3 7 1 4 9 -7 18 -14 21 -14 7z"/>
<path d="M1305 2861 c2 -19 18 -17 21 2 1 8 -4 14 -11 14 -7 0 -12 -7 -10 -16z"/>
<path d="M973 2845 c0 -8 4 -15 9 -15 4 0 8 4 8 9 0 6 -4 12 -8 15 -5 3 -9 -1
-9 -9z"/>
<path d="M973 2805 c0 -8 6 -16 14 -19 11 -4 11 -1 3 14 -13 24 -17 25 -17 5z"/>
<path d="M1310 2738 c0 -4 4 -8 9 -8 6 0 12 4 15 8 3 5 -1 9 -9 9 -8 0 -15 -4
-15 -9z"/>
<path d="M1093 2603 c0 -7 4 -13 8 -13 4 0 9 6 12 13 3 8 0 14 -7 14 -7 0 -13
-6 -13 -14z"/>
<path d="M1175 2610 c-3 -5 -1 -10 4 -10 6 0 11 5 11 10 0 6 -2 10 -4 10 -3 0
-8 -4 -11 -10z"/>
<path d="M2586 2407 c3 -10 9 -15 12 -12 3 3 0 11 -7 18 -10 9 -11 8 -5 -6z"/>
<path d="M2570 2325 c0 -7 30 -13 34 -7 3 4 -4 9 -15 9 -10 1 -19 0 -19 -2z"/>
<path d="M1578 2303 c7 -3 16 -2 19 1 4 3 -2 6 -13 5 -11 0 -14 -3 -6 -6z"/>
<path d="M2675 2261 c-3 -5 -2 -12 3 -15 5 -3 9 1 9 9 0 17 -3 19 -12 6z"/>
<path d="M2800 2066 c0 -2 8 -10 18 -17 15 -13 16 -12 3 4 -13 16 -21 21 -21
13z"/>
<path d="M1295 1880 c3 -5 8 -10 11 -10 2 0 4 5 4 10 0 6 -5 10 -11 10 -5 0
-7 -4 -4 -10z"/>
<path d="M977 1753 c-10 -9 -9 -23 1 -23 5 0 9 7 9 15 0 17 -1 18 -10 8z"/>
<path d="M1570 1639 c0 -5 5 -7 10 -4 6 3 10 8 10 11 0 2 -4 4 -10 4 -5 0 -10
-5 -10 -11z"/>
<path d="M977 1553 c-10 -9 -9 -23 1 -23 5 0 9 7 9 15 0 17 -1 18 -10 8z"/>
<path d="M960 1490 c-9 -6 -10 -10 -3 -10 6 0 15 5 18 10 8 12 4 12 -15 0z"/>
<path d="M70 1380 c0 -5 5 -10 10 -10 6 0 10 5 10 10 0 6 -4 10 -10 10 -5 0
-10 -4 -10 -10z"/>
<path d="M1275 1340 c3 -5 8 -10 11 -10 2 0 4 5 4 10 0 6 -5 10 -11 10 -5 0
-7 -4 -4 -10z"/>
<path d="M1575 1269 c-4 -6 -5 -12 -2 -15 2 -3 7 2 10 11 7 17 1 20 -8 4z"/>
<path d="M196 1107 c3 -10 9 -15 12 -12 3 3 0 11 -7 18 -10 9 -11 8 -5 -6z"/>
<path d="M1159 1103 c-8 -9 -9 -14 -2 -10 6 4 14 1 16 -5 3 -7 6 -3 6 10 1 26
-2 27 -20 5z"/>
<path d="M2638 1043 c7 -3 16 -2 19 1 4 3 -2 6 -13 5 -11 0 -14 -3 -6 -6z"/>
<path d="M4146 1031 c-4 -5 -2 -12 3 -15 5 -4 12 -2 15 3 4 5 2 12 -3 15 -5 4
-12 2 -15 -3z"/>
<path d="M1575 960 c-3 -5 1 -10 10 -10 9 0 13 5 10 10 -3 6 -8 10 -10 10 -2
0 -7 -4 -10 -10z"/>
<path d="M2445 940 c-3 -6 1 -7 9 -4 18 7 21 14 7 14 -6 0 -13 -4 -16 -10z"/>
<path d="M542 900 c0 -14 2 -19 5 -12 2 6 2 18 0 25 -3 6 -5 1 -5 -13z"/>
<path d="M567 898 c-4 -11 6 -14 39 -13 24 0 44 5 44 10 0 12 -49 15 -57 2 -3
-5 -9 -4 -13 3 -5 9 -9 8 -13 -2z"/>
</g>
</svg>
