<?xml version="1.0" standalone="no"?>
<!DOCTYPE svg PUBLIC "-//W3C//DTD SVG 20010904//EN"
 "http://www.w3.org/TR/2001/REC-SVG-20010904/DTD/svg10.dtd">
<svg version="1.0" xmlns="http://www.w3.org/2000/svg"
 width="516.000000pt" height="516.000000pt" viewBox="0 0 516.000000 516.000000"
 preserveAspectRatio="xMidYMid meet">
<metadata>
Created by potrace 1.14, written by Peter Selinger 2001-2017
</metadata>
<g transform="translate(0.000000,516.000000) scale(0.100000,-0.100000)"
fill="#000000" stroke="none">
<path d="M2519 4722 c-30 -53 -58 -105 -64 -114 -5 -10 -68 -119 -140 -243
-71 -124 -138 -240 -149 -258 -57 -99 -257 -447 -274 -477 -11 -19 -70 -123
-132 -230 -62 -107 -121 -211 -132 -230 -18 -31 -92 -159 -403 -700 -137 -239
-463 -805 -483 -840 -10 -19 -43 -75 -72 -125 -29 -49 -62 -106 -73 -125 -112
-198 -552 -962 -579 -1007 l-20 -33 694 6 c381 3 774 7 872 8 l179 2 105 184
c57 102 118 210 134 240 27 47 169 300 231 410 39 69 121 216 142 255 51 92
262 468 318 565 33 58 67 119 76 136 9 16 92 166 186 333 152 271 171 300 183
284 11 -15 69 -111 117 -195 6 -10 107 -183 225 -384 118 -202 227 -387 241
-413 14 -25 104 -179 199 -341 95 -162 181 -310 191 -328 39 -67 57 -98 77
-132 l21 -35 -362 -3 c-199 -2 -573 -5 -830 -7 -258 -2 -470 -5 -472 -7 -2 -2
-49 -113 -104 -248 -56 -135 -106 -253 -111 -262 -6 -10 -10 -24 -10 -33 0
-16 -139 -16 1755 1 1091 9 1083 9 1089 14 2 3 -34 70 -81 150 -47 80 -95 163
-108 185 -12 22 -100 173 -195 335 -95 162 -181 309 -190 325 -10 17 -95 163
-190 325 -95 162 -183 313 -195 335 -12 22 -57 98 -99 169 -42 70 -76 130 -76
132 0 2 -15 27 -33 56 -19 29 -45 73 -59 98 -38 68 -153 265 -262 448 -53 90
-96 166 -96 168 0 2 -16 28 -35 58 -19 30 -35 58 -35 61 0 4 -13 26 -30 50
-16 24 -30 46 -30 50 0 3 -11 22 -23 43 -13 20 -35 57 -49 82 -74 130 -242
417 -252 427 -8 9 -68 -90 -236 -389 -124 -220 -239 -426 -256 -457 -17 -31
-144 -258 -284 -506 -293 -522 -377 -673 -412 -735 -14 -25 -78 -139 -143
-255 -65 -115 -127 -227 -139 -248 -12 -21 -25 -46 -31 -55 -5 -10 -50 -88
-98 -174 l-88 -157 -225 -3 c-123 -2 -224 -1 -224 0 0 4 46 84 295 517 73 127
142 246 153 266 11 19 53 93 94 165 41 71 198 343 348 604 150 261 323 561
383 665 60 105 121 210 135 234 14 25 38 67 53 93 16 27 29 53 29 58 0 6 5 10
10 10 6 0 10 4 10 9 0 5 38 75 84 154 46 80 86 151 90 159 3 7 16 29 27 48 84
140 212 367 212 375 0 5 -72 132 -160 281 l-159 272 -55 -96z"/>
</g>
</svg>
